<svg width="295" height="253" viewBox="0 0 295 253" fill="none" xmlns="http://www.w3.org/2000/svg">
<path d="M185.681 188.43L188.301 188.899C191.084 189.395 192.936 192.054 192.439 194.836L191.958 197.524C191.461 200.306 188.802 202.158 186.02 201.662L183.4 201.193C180.618 200.696 178.765 198.037 179.262 195.254L179.743 192.568C180.24 189.785 182.899 187.932 185.681 188.43ZM203.109 116.125C209.915 117.341 214.629 120.703 217.251 126.208C219.338 130.556 219.919 135.327 218.99 140.521C217.437 149.209 212.026 156.769 202.757 163.199C199.525 165.441 197.496 168.359 196.667 171.955C196.361 173.147 196.076 174.483 195.812 175.961C195.315 178.743 192.656 180.596 189.874 180.098L187.254 179.63C184.471 179.133 182.619 176.474 183.116 173.692V173.691C184.533 165.764 187.533 160.225 192.117 157.069C197.071 153.656 200.723 149.897 203.076 145.787C204.428 143.395 205.356 140.788 205.861 137.967C206.38 135.056 206.139 132.656 205.137 130.766C204.046 128.585 202.105 127.429 199.31 127.299C196.701 127.157 194.548 128.598 192.853 131.622C192.767 131.768 192.684 131.918 192.602 132.07C191.4 134.305 188.731 135.312 186.349 134.439L184.013 133.585C181.123 132.527 179.804 129.166 181.217 126.431C182.62 123.712 184.471 121.407 186.769 119.512C189.259 117.463 192.438 116.227 196.303 115.809C198.331 115.572 200.6 115.676 203.109 116.125Z" fill="#AEDBED"/>
<path d="M86.2017 199.151L88.3772 199.255C90.6877 199.365 92.4724 201.327 92.3617 203.638L92.2556 205.869C92.1456 208.18 90.183 209.964 87.8725 209.855L85.697 209.751C83.3865 209.64 81.6026 207.678 81.7126 205.368L81.8187 203.135C81.9286 200.825 83.8912 199.041 86.2017 199.151ZM92.7181 138.629C98.3703 138.898 102.551 141.129 105.259 145.32C107.412 148.629 108.386 152.44 108.181 156.753C107.838 163.969 104.243 170.675 97.3984 176.871C95.0114 179.032 93.6729 181.615 93.3804 184.62C93.2571 185.62 93.1667 186.734 93.1082 187.962C92.9982 190.273 91.0364 192.056 88.7251 191.947L86.5496 191.844C84.2383 191.733 82.4552 189.771 82.5644 187.46C82.8779 180.877 84.729 176.064 88.1167 173.02C91.7766 169.727 94.3445 166.29 95.8203 162.707C96.6651 160.622 97.1433 158.409 97.2548 156.066C97.3703 153.649 96.921 151.726 95.9077 150.299C94.793 148.643 93.0949 147.91 90.8133 148.099C88.6807 148.259 87.0855 149.655 86.0285 152.289C85.9747 152.416 85.9224 152.547 85.8717 152.679C85.133 154.62 83.073 155.718 81.048 155.261L79.062 154.814C76.6033 154.26 75.1797 151.672 76.037 149.303C76.8888 146.948 78.147 144.882 79.8124 143.102C81.6182 141.176 84.0675 139.838 87.1604 139.091C88.7821 138.684 90.6347 138.529 92.7181 138.629Z" fill="#AEDBED"/>
<path d="M124.575 112.065L126.234 111.774C127.997 111.464 129.675 112.642 129.984 114.404L130.283 116.105C130.592 117.867 129.415 119.546 127.653 119.855L125.993 120.146C124.232 120.456 122.553 119.278 122.244 117.516L121.945 115.815C121.636 114.053 122.814 112.374 124.575 112.065ZM119.22 65.3022C123.529 64.5455 127.061 65.519 129.816 68.2218C132.001 70.3521 133.383 73.062 133.961 76.3506C134.926 81.8522 133.352 87.5208 129.241 93.3578C127.807 95.3921 127.235 97.5677 127.525 99.8844C127.602 100.661 127.723 101.516 127.887 102.451C128.196 104.214 127.018 105.892 125.257 106.201L123.598 106.492C121.836 106.802 120.157 105.624 119.847 103.862C118.967 98.843 119.546 94.8984 121.585 92.0271C123.787 88.9217 125.142 85.8928 125.646 82.9396C125.929 81.2235 125.915 79.4723 125.601 77.686C125.278 75.8428 124.613 74.4692 123.606 73.5643C122.485 72.5043 121.079 72.239 119.39 72.7695C117.808 73.2515 116.841 74.5753 116.492 76.7422C116.472 76.8475 116.455 76.9544 116.439 77.0636C116.212 78.6525 114.844 79.8312 113.238 79.8304L111.665 79.8296C109.716 79.8288 108.202 78.1182 108.447 76.1853C108.691 74.2648 109.289 72.4926 110.243 70.8677C111.279 69.1072 112.9 67.6828 115.106 66.5939C116.259 66.012 117.631 65.5806 119.22 65.3022Z" fill="#AEDBED"/>
<path d="M3.19108 162.043L4.2925 162.328C5.46178 162.63 6.16381 163.824 5.86116 164.993L5.56864 166.122C5.26599 167.292 4.07253 167.994 2.90325 167.691L1.80184 167.407C0.632558 167.103 -0.0694765 165.911 0.233179 164.741L0.525693 163.612C0.828348 162.443 2.02181 161.74 3.19108 162.043ZM12.979 131.804C15.8394 132.546 17.738 134.132 18.6756 136.563C19.4229 138.484 19.5142 140.536 18.9486 142.719C18.0032 146.37 15.451 149.414 11.291 151.851C9.84091 152.7 8.88069 153.877 8.41032 155.382C8.24105 155.881 8.07569 156.439 7.915 157.061C7.61234 158.23 6.41888 158.933 5.24961 158.63L4.14897 158.345C2.97969 158.042 2.27688 156.849 2.57953 155.68C3.44226 152.348 4.90171 150.086 6.95867 148.892C9.18022 147.598 10.8596 146.116 11.9962 144.442C12.6498 143.467 13.1311 142.387 13.4377 141.2C13.7544 139.978 13.7302 138.948 13.3643 138.109C12.972 137.144 12.1818 136.588 10.9954 136.442C9.8885 136.296 8.92437 136.839 8.10299 138.073C8.06165 138.133 8.02108 138.193 7.9813 138.256C7.39627 139.168 6.22621 139.509 5.23947 139.061L4.273 138.62C3.07564 138.074 2.62322 136.6 3.31511 135.48C4.00155 134.368 4.86505 133.446 5.90562 132.714C7.03434 131.922 8.42904 131.5 10.0897 131.448C10.9618 131.413 11.9252 131.532 12.979 131.804Z" fill="#AEDBED"/>
<path d="M46.4517 166.868L49.8511 165.995C53.4611 165.067 57.139 167.243 58.0664 170.853L58.9611 174.339C59.8886 177.949 57.7131 181.627 54.1031 182.554L50.7037 183.427C47.0936 184.354 43.4157 182.179 42.4883 178.569L41.5936 175.082C40.6661 171.472 42.8416 167.794 46.4517 166.868ZM27.7682 70.5874C36.599 68.3199 44.0944 69.7715 50.2536 74.94C55.1382 79.0134 58.4463 84.4191 60.1772 91.1586C63.0719 102.432 60.7193 114.461 53.1202 127.251C50.4704 131.71 49.6342 136.322 50.61 141.088C50.8955 142.686 51.2848 144.445 51.7778 146.363C52.7044 149.973 50.5297 153.651 46.9197 154.577L43.5195 155.45C39.9103 156.378 36.2316 154.203 35.3049 150.593C32.6637 140.307 33.23 132.019 37.0015 125.723C41.0749 118.917 43.3978 112.407 43.9696 106.189C44.2816 102.579 43.9672 98.9434 43.0273 95.2827C42.0577 91.5073 40.4547 88.76 38.2176 87.0423C35.716 85.0228 32.7526 84.6991 29.3283 86.0735C26.1215 87.331 24.3274 90.2374 23.9499 94.7944C23.928 95.0159 23.9093 95.2421 23.8945 95.4707C23.6769 98.8084 21.0263 101.477 17.6909 101.735L14.4209 101.988C10.3741 102.302 6.95284 98.9925 7.14863 94.9371C7.34364 90.909 8.30075 87.1289 10.02 83.5993C11.8858 79.7763 15.0231 76.5547 19.4303 73.9361C21.7346 72.5406 24.5131 71.4236 27.7682 70.5874Z" fill="#AEDBED"/>
<path d="M268.923 169.113L271.326 168.496C273.877 167.84 276.476 169.378 277.131 171.929L277.763 174.393C278.419 176.943 276.882 179.543 274.331 180.198L271.928 180.815C269.377 181.47 266.778 179.933 266.123 177.382L265.49 174.918C264.835 172.367 266.372 169.768 268.923 169.113ZM255.72 101.074C261.961 99.4716 267.258 100.497 271.61 104.15C275.062 107.028 277.4 110.848 278.623 115.611C280.668 123.576 279.006 132.079 273.636 141.116C271.763 144.267 271.172 147.526 271.862 150.895C272.064 152.024 272.339 153.267 272.687 154.622C273.342 157.173 271.805 159.772 269.254 160.427L266.852 161.044C264.301 161.699 261.702 160.162 261.046 157.611C259.18 150.343 259.58 144.486 262.245 140.037C265.124 135.228 266.765 130.626 267.17 126.232C267.39 123.682 267.168 121.112 266.504 118.525C265.819 115.857 264.685 113.916 263.105 112.702C261.337 111.275 259.243 111.046 256.823 112.017C254.557 112.905 253.289 114.96 253.022 118.179C253.006 118.337 252.993 118.496 252.982 118.657C252.83 121.017 250.956 122.902 248.599 123.085L246.288 123.264C243.428 123.486 241.01 121.147 241.149 118.281C241.287 115.434 241.963 112.763 243.178 110.268C244.497 107.567 246.714 105.291 249.829 103.44C251.456 102.454 253.42 101.664 255.72 101.074Z" fill="#AEDBED"/>
<path d="M257.936 56.2327L259.264 55.8918C260.674 55.5299 262.111 56.3786 262.473 57.7889L262.822 59.1508C263.185 60.5611 262.335 61.998 260.925 62.3591L259.597 62.7008C258.187 63.0627 256.75 62.2132 256.389 60.8029L256.038 59.441C255.676 58.0315 256.526 56.5946 257.936 56.2327ZM250.638 18.6247C254.087 17.7386 257.016 18.3056 259.421 20.3252C261.329 21.9157 262.621 24.0272 263.297 26.6599C264.428 31.0624 263.509 35.7621 260.541 40.7575C259.506 42.5001 259.18 44.3004 259.56 46.1624C259.672 46.7872 259.824 47.4736 260.016 48.2225C260.378 49.6328 259.529 51.0696 258.119 51.4315L256.791 51.7724C255.381 52.1344 253.944 51.2849 253.582 49.8754C252.551 45.8574 252.771 42.6202 254.245 40.1608C255.836 37.5024 256.743 34.9595 256.967 32.5304C257.088 31.1209 256.966 29.7005 256.598 28.2706C256.22 26.7956 255.594 25.723 254.719 25.0514C253.743 24.2636 252.585 24.1364 251.247 24.6731C249.995 25.1645 249.294 26.3003 249.147 28.0795C249.138 28.1669 249.13 28.255 249.125 28.344C249.04 29.6482 248.005 30.6903 246.702 30.7909L245.424 30.89C243.844 31.0125 242.508 29.72 242.584 28.1357C242.661 26.5624 243.034 25.0857 243.706 23.7074C244.434 22.2136 245.66 20.9547 247.381 19.9328C248.282 19.3876 249.367 18.9507 250.638 18.6247Z" fill="#AEDBED"/>
<path d="M79.7786 79.6839C79.7786 79.6839 87.462 42.2249 69.9548 44.0705L53.2183 78.9179C53.2183 78.9179 64.4368 83.5162 79.7786 79.6839Z" fill="#361710"/>
<path d="M40.7711 79.6839C40.7711 79.6839 36.5121 49.3076 49.726 41.5993L67.3315 78.9179C67.3315 78.9179 56.1137 83.5162 40.7711 79.6839Z" fill="#361710"/>
<path d="M13.6484 71.2838H15.6859C17.8497 71.2838 19.604 73.0381 19.604 75.2011V77.2909C19.604 79.4555 17.8497 81.209 15.6859 81.209H13.6484C11.4846 81.209 9.73108 79.4555 9.73108 77.2909V75.2011C9.73108 73.0381 11.4846 71.2838 13.6484 71.2838ZM17.0447 14.4486C22.3373 14.4486 26.342 16.3464 29.0589 20.1421C31.218 23.1374 32.2976 26.6546 32.2976 30.6945C32.2976 37.4512 29.2375 43.8763 23.1189 49.9708C20.9847 52.0948 19.849 54.5675 19.7093 57.3889C19.6391 58.3289 19.604 59.3726 19.604 60.5224C19.604 62.687 17.8497 64.4405 15.6859 64.4405H13.6484C11.4846 64.4405 9.73108 62.687 9.73108 60.5224C9.73108 54.3585 11.2459 49.7797 14.2756 46.7843C17.5486 43.5448 19.7944 40.2195 21.0143 36.8061C21.7101 34.8216 22.0588 32.7319 22.0588 30.5377C22.0588 28.274 21.5541 26.4986 20.544 25.21C19.4293 23.7131 17.8099 23.1023 15.6859 23.3808C13.7007 23.625 12.2724 25.001 11.4027 27.508C11.3575 27.6297 11.3146 27.7537 11.2732 27.8801C10.6695 29.7264 8.79347 30.8435 6.88082 30.508L5.0056 30.1781C2.68421 29.7693 1.2388 27.4152 1.93459 25.1632C2.62571 22.9261 3.70996 20.9393 5.18579 19.2014C6.78799 17.3215 9.01656 15.9634 11.8731 15.128C13.37 14.6756 15.0931 14.4486 17.0447 14.4486Z" fill="#FCC822"/>
<path d="M62.3934 225.168C62.3934 225.168 61.4238 228.915 59.6796 228.35C56.419 227.297 56.2287 225.168 56.2287 225.168C56.2287 225.168 54.1725 231.368 54.5641 234.321C54.9557 237.273 54.5641 243.911 54.5641 243.911H57.54C57.54 243.911 60.3231 244.25 61.4768 245.928C62.6313 247.605 68.9535 247.108 70.9574 246.031C73.5245 244.653 66.7865 237.639 64.4027 233.73C62.0189 229.821 62.3934 225.168 62.3934 225.168Z" fill="#1C0906"/>
<path d="M56.8241 169.994C58.8803 164.915 66.2158 164.972 68.0247 170.143C68.3508 171.075 68.5871 172.051 68.7416 173.039C69.5021 177.888 68.7384 185.661 66.7361 195.587C64.034 208.981 62.5738 235.698 57.8819 236.092C53.1892 236.485 55.9474 214.018 55.8491 200.733C55.7516 187.448 53.658 177.815 56.6291 170.478L56.8241 169.994Z" fill="#CF9166"/>
<path d="M59.5238 208.318C58.8818 190.793 60.048 177.793 57.2523 168.553L57.069 167.945C55.1337 161.549 49.2179 162.688 48.0377 169.767C47.8256 171.043 47.6883 172.362 47.6165 173.688C47.2671 180.189 48.3045 190.323 50.459 203.116C53.367 220.378 54.0737 236.255 57.8818 236.092C61.6892 235.929 60.1658 225.843 59.5238 208.318Z" fill="#EDAC7C"/>
<path d="M54.2074 228.251C54.2074 228.251 55.0374 234.869 57.3471 234.469C59.6186 234.075 60.3713 228.251 60.3713 228.251C60.3713 228.251 62.4283 234.45 62.0367 237.402C61.8159 239.066 61.844 241.9 61.9103 244.057C61.9595 245.665 60.6701 246.993 59.0608 246.993C59.0608 246.993 56.2777 247.331 55.1232 249.009C53.9695 250.688 47.6473 250.19 45.6434 249.114C43.0755 247.735 49.8143 240.721 52.1981 236.812C54.5819 232.903 54.2074 228.251 54.2074 228.251Z" fill="#361710"/>
<path d="M73.8917 127.827L58.9937 125.13V125.026L58.7082 125.078L58.4219 125.026V125.13L43.5248 127.827C43.5248 127.827 38.2564 135.673 39.2876 144.904C40.318 154.133 45.0692 204.051 45.0692 204.051H70.7154C70.7154 204.051 77.0976 154.133 78.1288 144.904C79.1593 135.673 73.8917 127.827 73.8917 127.827Z" fill="#195172"/>
<path d="M75.667 131.151C74.727 129.073 73.8916 127.826 73.8916 127.826L58.9937 125.129V125.025L58.7082 125.077L58.4227 125.025V125.129L43.5247 127.826C43.5247 127.826 42.6893 129.073 41.7501 131.151H75.667Z" fill="#0D435E"/>
<path d="M61.912 204.05L62.0859 154.183L66.3566 204.05" fill="#0D435E"/>
<path d="M39.1644 141.925C40.6098 141.882 43.0451 141.595 46.5701 140.48C52.7504 138.526 52.8026 130.368 52.8026 130.368L52.6373 126.177L43.5248 127.826C43.5248 127.826 39.3532 134.046 39.1644 141.925Z" fill="#0D435E"/>
<path d="M78.2524 141.927C78.0644 134.048 73.892 127.827 73.892 127.827L64.1524 126.064L63.9036 130.369C63.9036 130.369 63.9558 138.527 70.1361 140.481C74.3249 141.806 76.9755 141.963 78.2524 141.927Z" fill="#0D435E"/>
<path d="M44.3568 85.5093L54.9404 81.2082L63.2462 81.2979L76.2237 86.7106C76.2237 86.7106 69.4592 109.964 69.9046 115.964C70.35 121.964 73.8914 128.754 73.8914 128.754H44.3568C44.3568 128.754 49.6447 118.055 48.484 111.744C47.3225 105.432 44.3568 85.5093 44.3568 85.5093Z" fill="#5C93BC"/>
<path d="M69.187 49.1567C65.5957 42.4374 46.6104 40.0575 43.1197 61.1825C40.5744 76.5774 57.8944 80.2077 66.6737 77.3886C81.6099 72.5929 72.7791 55.8759 69.187 49.1567Z" fill="#3E150D"/>
<path d="M72.2779 63.4474C72.2779 63.4474 74.962 60.0004 77.4324 62.2648C79.9036 64.5309 76.3723 71.5106 71.6406 69.8687L72.2779 63.4474Z" fill="#EDAC7C"/>
<path d="M72.0367 65.8809L71.7075 69.1867C75.8004 69.9215 78.1358 64.2226 76.2536 63.4324C74.7309 62.7935 72.8417 64.7928 72.0367 65.8809Z" fill="#F7A588"/>
<path d="M76.9129 64.6135C76.9129 64.6135 76.9051 64.5878 76.8926 64.5402C76.8801 64.4934 76.8575 64.4263 76.831 64.342C76.7694 64.1782 76.6641 63.9411 76.4636 63.7711C76.4137 63.7281 76.3552 63.6938 76.2951 63.665C76.2639 63.6517 76.2335 63.6369 76.1984 63.626L76.1757 63.6182L76.1742 63.6174C76.1921 63.6236 76.1781 63.6189 76.1812 63.6205L76.1781 63.6189L76.1687 63.6174L76.1531 63.6135L76.0884 63.5955C76.0416 63.5815 76.0065 63.5768 75.9714 63.5714C75.9378 63.5651 75.9004 63.5597 75.8567 63.5573C75.8177 63.555 75.7772 63.5526 75.7374 63.5534C75.6945 63.5534 75.6539 63.5519 75.6118 63.5573C75.2756 63.5807 74.9199 63.7118 74.5814 63.8935C74.409 63.9817 74.2452 64.0885 74.0829 64.1962C73.923 64.3054 73.7654 64.4185 73.6164 64.5324C73.3192 64.7625 73.0486 64.9942 72.8146 65.1938C72.3473 65.6065 72.0369 65.8818 72.0369 65.8818C72.0369 65.8818 72.0766 65.7843 72.164 65.6221C72.2529 65.4614 72.3863 65.2344 72.5728 64.9801C72.6671 64.8537 72.7701 64.7157 72.8902 64.5792C73.0096 64.4419 73.1422 64.3007 73.2873 64.1626C73.5782 63.8873 73.9191 63.6158 74.3122 63.406C74.5088 63.3022 74.7171 63.2125 74.9347 63.1517C75.1531 63.0909 75.3825 63.0581 75.6063 63.0667C75.6617 63.0675 75.7163 63.0721 75.7725 63.0799C75.8271 63.0831 75.8801 63.0955 75.9332 63.1072C75.9854 63.1174 76.0385 63.133 76.0923 63.1509C76.1477 63.1681 76.1992 63.1852 76.235 63.2047L76.2967 63.2336L76.3357 63.2515L76.3708 63.2703C76.4168 63.2944 76.4589 63.3233 76.4995 63.3537C76.5782 63.4161 76.6477 63.4848 76.7015 63.5573C76.8146 63.6993 76.87 63.8522 76.902 63.984C76.9355 64.115 76.9394 64.2321 76.941 64.3241C76.941 64.4169 76.93 64.491 76.9246 64.5394C76.9168 64.5885 76.9129 64.6135 76.9129 64.6135Z" fill="#CF9166"/>
<path d="M47.3923 63.1788C47.3923 63.1788 44.7831 59.6764 42.2651 61.887C39.7448 64.0977 43.1255 71.1531 47.8923 69.6133L47.3923 63.1788Z" fill="#EDAC7C"/>
<path d="M47.5817 65.6177L47.8391 68.9297C43.7322 69.5772 41.52 63.8291 43.4194 63.0794C44.9537 62.4741 46.8009 64.5124 47.5817 65.6177Z" fill="#F7A588"/>
<path d="M42.7348 64.2453C42.7348 64.2453 42.7418 64.2211 42.7558 64.1735C42.7699 64.126 42.7933 64.0596 42.8229 63.9754C42.8861 63.8124 42.9961 63.5784 43.202 63.4122C43.2519 63.3709 43.3096 63.3381 43.3721 63.31C43.404 63.2983 43.4345 63.2835 43.4672 63.2741L43.4937 63.2663L43.4953 63.2656C43.4758 63.2726 43.4914 63.2663 43.4875 63.2679H43.4914L43.4992 63.2648L43.5148 63.2609L43.5811 63.2453C43.6263 63.232 43.663 63.2281 43.6981 63.2234C43.7324 63.2172 43.7707 63.2141 43.8128 63.2125C43.8526 63.2102 43.8916 63.2086 43.9329 63.211C43.9742 63.211 44.0156 63.2117 44.0577 63.218C44.3923 63.2476 44.7465 63.3857 45.0811 63.576C45.2504 63.6688 45.4134 63.7773 45.5733 63.8888C45.7301 64.0019 45.8853 64.1181 46.032 64.2359C46.3245 64.4723 46.5897 64.7094 46.8198 64.913C47.2777 65.3366 47.5819 65.6182 47.5819 65.6182C47.5819 65.6182 47.5437 65.5199 47.4595 65.3561C47.376 65.1938 47.2465 64.9629 47.0648 64.7047C46.9743 64.5768 46.8729 64.4364 46.7559 64.2976C46.6389 64.1579 46.5117 64.0136 46.369 63.8717C46.0842 63.5916 45.7496 63.3124 45.3612 63.0932C45.1677 62.9871 44.9594 62.8927 44.7426 62.8272C44.5257 62.7609 44.298 62.7234 44.0749 62.7266C44.0179 62.7258 43.9633 62.7312 43.9079 62.7367C43.8526 62.739 43.7995 62.7484 43.7449 62.7609C43.6942 62.7687 43.6412 62.7827 43.5858 62.8007C43.5312 62.817 43.4797 62.8326 43.4423 62.8521L43.3806 62.8779L43.3416 62.8958L43.3057 62.9138C43.2589 62.9364 43.2153 62.9653 43.1739 62.9941C43.0951 63.0557 43.0249 63.122 42.968 63.193C42.8525 63.3342 42.794 63.4855 42.7589 63.615C42.7223 63.7461 42.716 63.8623 42.7129 63.9559C42.7106 64.0495 42.7192 64.1228 42.7246 64.1712C42.7309 64.2196 42.7348 64.2453 42.7348 64.2453Z" fill="#CF9166"/>
<path d="M62.6919 74.0481L55.9547 73.974C55.9547 73.974 55.5818 84.5209 55.5569 84.5209C55.5569 84.5209 56.0288 86.6301 59.0171 86.7089C62.0062 86.7869 62.7668 84.5973 62.7668 84.5973C62.7426 84.5396 62.6919 74.0481 62.6919 74.0481Z" fill="#EDAC7C"/>
<path d="M62.7668 77.9311L55.7433 77.6963C55.7433 77.6963 55.7036 81.5778 55.6786 81.5778C55.6786 81.5778 56.0561 84.0442 59.0452 84.123C62.0343 84.201 62.7372 81.935 62.7372 81.935C62.7138 81.8765 62.7668 77.9311 62.7668 77.9311Z" fill="#CF9166"/>
<path d="M62.6706 75.9873L55.9334 75.914C55.9334 75.914 55.8336 77.2603 55.7439 78.4062C55.7298 78.5716 57.6627 78.8859 57.8726 78.921C59.5185 79.2003 61.1448 79.006 62.7541 78.6145C62.7143 77.4413 62.6706 75.9873 62.6706 75.9873Z" fill="#CF9166"/>
<path d="M75.7138 60.7034C75.6233 69.1044 68.2605 75.8369 59.269 75.7402C50.2775 75.6435 43.0621 68.7534 43.1518 60.3524C43.2423 51.9498 50.6051 45.2173 59.5974 45.314C68.5881 45.4115 75.805 52.3008 75.7138 60.7034Z" fill="#3E150D"/>
<path d="M73.9849 60.477C73.8726 55.7952 71.9077 51.3544 67.3023 49.4878C64.9607 48.5377 62.3811 48.2639 59.8639 48.2772C57.3771 48.2912 54.7281 48.4238 52.381 49.299C48.1781 50.8693 47.0369 48.3068 46.565 52.5775C46.5182 52.9956 45.9628 54.7843 45.3934 60.1689C45.2912 61.1283 45.2647 62.0815 45.2896 63.0503C45.3474 65.2266 45.6695 67.4123 46.3575 69.4857C47.1906 72.0013 48.6025 74.343 50.6742 76.0629C51.8513 77.0411 53.2102 77.7946 54.6532 78.3219C57.0362 79.1901 59.3116 79.4935 61.8179 79.0598C63.5168 78.7666 65.1759 78.2299 66.6736 77.3882C69.1588 75.992 71.0325 73.8 72.215 71.2556C73.2088 69.1144 73.74 66.7789 73.9514 64.4411C74.0668 63.1611 74.1058 61.8592 73.9943 60.5792C73.9912 60.5449 73.9857 60.5113 73.9849 60.477Z" fill="#EDAC7C"/>
<path d="M64.0392 64.9065C63.9729 66.2357 64.9097 67.3613 66.1305 67.4213C67.352 67.4814 68.3949 66.451 68.462 65.121C68.5283 63.7918 67.5931 62.6662 66.3707 62.6069C65.15 62.5469 64.1055 63.5773 64.0392 64.9065Z" fill="#CF9166"/>
<path d="M64.0672 64.3432C64.0001 65.6732 64.937 66.798 66.1577 66.8588C67.3801 66.9189 68.423 65.8885 68.4893 64.5593C68.5571 63.2301 67.6211 62.1029 66.3988 62.0437C65.178 61.9851 64.1335 63.014 64.0672 64.3432Z" fill="black"/>
<path d="M64.8588 63.7284C64.8346 64.2097 65.2129 64.62 65.702 64.6434C66.1926 64.6676 66.6092 64.2971 66.6326 63.815C66.6575 63.3337 66.2792 62.925 65.7901 62.9008C65.3003 62.8758 64.8829 63.2471 64.8588 63.7284Z" fill="white"/>
<path d="M50.8515 64.387C50.7852 65.7161 51.7212 66.8417 52.942 66.9018C54.1643 66.9619 55.2072 65.9307 55.2735 64.6022C55.3406 63.2731 54.4053 62.1467 53.183 62.0874C51.963 62.0289 50.9178 63.057 50.8515 64.387Z" fill="#CF9166"/>
<path d="M50.8797 63.8237C50.8126 65.1537 51.7503 66.2785 52.9702 66.3394C54.1926 66.3986 55.2355 65.3698 55.3018 64.039C55.3696 62.7106 54.4328 61.5835 53.2113 61.525C51.9913 61.4657 50.946 62.4953 50.8797 63.8237Z" fill="black"/>
<path d="M51.6716 63.2099C51.6482 63.6912 52.0241 64.1015 52.5148 64.1249C53.0047 64.149 53.422 63.7785 53.4462 63.2957C53.4696 62.8144 53.0928 62.4049 52.6014 62.3815C52.1123 62.3573 51.6957 62.7278 51.6716 63.2099Z" fill="white"/>
<path d="M58.644 62.9203C58.644 62.9203 58.9685 65.847 57.5902 65.6037C54.9224 65.1372 54.9154 70.8541 58.9435 68.7254C60.4638 67.9227 59.963 62.9601 59.963 62.9601L58.644 62.9203Z" fill="#F48470"/>
<path d="M55.8174 71.3009C55.8174 71.3009 61.1848 72.1941 63.7356 69.1184C63.7356 69.1184 65.8799 74.8641 60.117 75.6021C56.4765 76.0654 55.8174 71.3009 55.8174 71.3009Z" fill="#B43128"/>
<path d="M57.6425 74.9243C58.2524 75.4274 59.0582 75.7355 60.1167 75.6014C61.4241 75.4329 62.3227 75.0078 62.935 74.4524C63.1105 74.2847 63.2665 74.1053 63.4085 73.9188C63.4124 73.9149 63.4155 73.9102 63.4179 73.9063C63.421 73.9032 63.421 73.9017 63.4225 73.9001C63.8617 73.2784 64.0505 72.5662 64.1066 71.8845C60.8679 71.0374 58.5465 73.5694 57.6425 74.9243Z" fill="#F05736"/>
<path d="M55.8174 71.3009C55.8174 71.3009 55.8244 71.3423 55.8361 71.4148C56.3587 71.5224 57.326 72.6582 58.6279 72.6129C59.4516 72.5856 60.2589 72.3579 61 72.0092C61.4602 71.7931 61.9344 71.5849 62.3323 71.2658C62.6373 71.0224 62.8565 70.3009 62.9852 69.8547C60.2636 72.0396 55.8182 71.3009 55.8174 71.3009Z" fill="white"/>
<path d="M56.1763 71.6376C56.4087 72.7125 57.3065 75.6696 60.0804 75.3147C61.617 75.1197 62.6966 74.5331 63.2894 73.5752C64.1077 72.2522 63.8152 70.5167 63.6038 69.6914C61.298 71.9784 57.4407 71.7756 56.1763 71.6376ZM59.5827 75.9176C56.1981 75.8818 55.5351 71.388 55.5296 71.3388C55.5163 71.2499 55.5475 71.1586 55.6146 71.0954C55.6817 71.0323 55.7738 71.0026 55.8666 71.0182C55.9181 71.026 61.0991 71.8458 63.5094 68.9363C63.5757 68.8575 63.6802 68.817 63.784 68.8349C63.8877 68.8521 63.9735 68.9223 64.0102 69.0198C64.0523 69.1329 65.0398 71.8435 63.7902 73.8708C63.1014 74.9855 61.8783 75.6649 60.1552 75.8841C59.9548 75.9098 59.766 75.92 59.5827 75.9176Z" fill="#F05B4E"/>
<path d="M53.7287 70.9878C53.7155 72.2148 52.6936 73.1985 51.4456 73.1844C50.1975 73.1712 49.1952 72.1657 49.2076 70.9387C49.2217 69.7117 50.2443 68.7288 51.4924 68.7413C52.7404 68.7561 53.742 69.7608 53.7287 70.9878Z" fill="#F49B77"/>
<path d="M69.9544 69.7331C69.9412 70.9601 68.9186 71.9446 67.6689 71.9305C66.4224 71.9173 65.4209 70.9126 65.4333 69.6848C65.4474 68.4586 66.4692 67.4749 67.7173 67.4882C68.9654 67.5022 69.9677 68.5077 69.9544 69.7331Z" fill="#F49B77"/>
<path d="M49.3296 58.3154C49.3296 58.3154 49.3795 58.2234 49.4965 58.0806C49.5558 58.012 49.6276 57.9223 49.7212 57.8365C49.8117 57.7452 49.9201 57.6501 50.0457 57.5518C50.1705 57.4543 50.3117 57.356 50.4669 57.2608C50.6237 57.1696 50.7914 57.0713 50.9755 56.994C51.1541 56.9059 51.3491 56.838 51.5488 56.7717C51.7485 56.7031 51.9591 56.6649 52.1658 56.611C52.3756 56.5783 52.5878 56.5463 52.7953 56.526C53.0044 56.5143 53.2111 56.5089 53.4076 56.5096C53.6073 56.5206 53.7984 56.5377 53.9778 56.5549C54.1596 56.5759 54.3265 56.6173 54.481 56.6477C54.6339 56.6828 54.7735 56.7125 54.8952 56.7593C55.0161 56.8006 55.1214 56.8412 55.2064 56.8739C55.3757 56.9394 55.4708 56.9862 55.4708 56.9862C55.4708 56.9862 55.3632 57.0011 55.1822 57.0135C55.0917 57.0206 54.9825 57.0299 54.8585 57.033C54.7368 57.0338 54.5964 57.0502 54.4451 57.0627C54.2953 57.0759 54.1338 57.0759 53.9646 57.0947C53.7945 57.1134 53.6182 57.1306 53.4349 57.1438C53.2532 57.168 53.0675 57.1961 52.8756 57.2171C52.6884 57.2491 52.4989 57.2811 52.3078 57.3146C52.2126 57.3349 52.119 57.3568 52.0254 57.3763C51.9302 57.3965 51.8366 57.4121 51.7461 57.4394C51.6541 57.4644 51.5621 57.487 51.4716 57.5089C51.3795 57.5292 51.2961 57.5627 51.2071 57.5861C51.0309 57.6337 50.8655 57.6922 50.7048 57.7444C50.6237 57.7686 50.5496 57.8029 50.4747 57.8279C50.3998 57.8552 50.3257 57.8786 50.2578 57.909C50.1198 57.9629 49.9918 58.0136 49.8811 58.0627C49.7656 58.1087 49.6697 58.1563 49.5854 58.1922C49.5082 58.232 49.4396 58.2585 49.3982 58.2819C49.353 58.3037 49.3296 58.3154 49.3296 58.3154Z" fill="black"/>
<path d="M68.5628 61.5273C68.5628 61.5273 68.5012 61.4423 68.3678 61.316C68.2984 61.2559 68.218 61.1755 68.115 61.1007C68.0129 61.0234 67.8912 60.9431 67.757 60.8612C67.6205 60.7801 67.4676 60.7013 67.3007 60.6272C67.1322 60.5562 66.9543 60.4805 66.7617 60.4283C66.5729 60.3635 66.3709 60.3206 66.1649 60.2801C65.959 60.2372 65.7453 60.2262 65.5331 60.2013C65.3194 60.1943 65.1072 60.1896 64.8974 60.1966C64.6883 60.2114 64.4832 60.2325 64.2858 60.2582C64.0908 60.2949 63.9036 60.3362 63.7265 60.376C63.5518 60.4197 63.3911 60.4829 63.2421 60.5336C63.0939 60.5874 62.9582 60.635 62.8451 60.6958C62.7297 60.7528 62.6314 60.8066 62.5518 60.8503C62.3896 60.9376 62.303 60.9946 62.303 60.9946C62.303 60.9946 62.4114 60.9969 62.5924 60.9868C62.6821 60.9813 62.7921 60.9759 62.9161 60.9642C63.0378 60.9493 63.1774 60.947 63.3295 60.9392C63.4793 60.9337 63.6392 60.9135 63.8116 60.9096C63.9816 60.9064 64.1587 60.9018 64.3412 60.8916C64.5253 60.8932 64.7149 60.8963 64.906 60.8916C65.0963 60.8986 65.2882 60.908 65.4824 60.9158C65.5784 60.9244 65.6743 60.9322 65.7702 60.94C65.8654 60.9486 65.9614 60.9517 66.0557 60.9681C66.1493 60.9821 66.243 60.9915 66.3358 61.0016C66.4294 61.0102 66.5191 61.032 66.608 61.0445C66.7898 61.0687 66.9606 61.1061 67.1275 61.1373C67.211 61.1498 67.2874 61.1748 67.3654 61.1896C67.4434 61.2075 67.5207 61.2216 67.5909 61.2418C67.7344 61.2793 67.8686 61.3121 67.9856 61.3464C68.1057 61.3784 68.2063 61.4127 68.2921 61.4376C68.3756 61.4673 68.4466 61.4844 68.4918 61.5024C68.5378 61.518 68.5628 61.5273 68.5628 61.5273Z" fill="black"/>
<path d="M73.7921 67.4639C73.7921 67.4639 74.147 66.8094 74.8225 65.5614C77.3498 60.8866 78.4169 55.4014 77.0534 50.2656C76.3202 47.5042 74.81 46.161 73.5807 45.5097C72.3209 44.8435 66.5923 41.2257 63.1539 40.1812C56.9471 38.2959 50.3371 40.2585 45.6927 43.4831C41.0484 46.7078 34.9898 57.2727 40.0133 57.3811C45.0367 57.4903 52.6725 50.4231 50.4034 52.2445C47.1553 54.853 50.3347 55.1291 57.6039 55.3779C64.8723 55.626 69.182 53.0971 69.182 53.0971C69.182 53.0971 68.9082 55.3218 69.9792 58.6174C71.0494 61.9139 74.0198 65.6682 74.0198 65.6682" fill="#361710"/>
<path d="M51.0348 82.7961L52.8024 127.719C52.8024 127.719 52.7501 135.878 46.5699 137.833C40.3896 139.787 37.5464 139.201 37.5464 139.201C37.5464 139.201 44.2641 110.244 42.917 103.76C41.5698 97.2752 39.5058 86.9147 39.5058 86.9147L51.0348 82.7961Z" fill="#122738"/>
<path d="M66.5076 82.676L63.9038 127.719C63.9038 127.719 63.9561 135.878 70.1363 137.833C76.3166 139.787 79.1598 139.201 79.1598 139.201C79.1598 139.201 72.4413 110.244 73.7885 103.76C75.1364 97.2752 77.2003 86.9155 77.2003 86.9155L66.5076 82.676Z" fill="#122738"/>
<path d="M84.1383 95.5399C84.1383 95.5399 96.608 110.304 96.6307 114.95C96.6525 119.595 90.1111 118.129 90.1111 118.129L78.2927 101.26L84.1383 95.5399Z" fill="#EDAC7C"/>
<path d="M84.1383 95.5398L78.2927 101.26L82.9909 107.966C82.9909 107.966 85.7772 103.811 90.8256 104.123C87.5627 99.5952 84.1383 95.5398 84.1383 95.5398Z" fill="#CF9166"/>
<path d="M38.7879 96.9431C38.7879 96.9431 22.1287 106.739 17.5467 105.975C12.964 105.212 15.5147 99.0125 15.5147 99.0125L34.1389 90.2152L38.7879 96.9431Z" fill="#EDAC7C"/>
<path d="M24.9819 104.017C31.2994 101.344 38.7878 96.9432 38.7878 96.9432L34.1387 90.2154L24.9772 94.5423C24.9772 94.5423 28.3742 101.929 24.9819 104.017" fill="#CF9166"/>
<path d="M93.813 118.216C93.8465 118.197 93.8801 118.177 93.9136 118.157C95.2249 117.363 96.1905 116.082 96.8505 114.696C98.2553 111.749 98.9979 108.335 100.067 105.243C100.898 102.834 101.653 100.237 102.672 97.8133C102.516 97.7423 102.369 97.6511 102.239 97.5286C100.943 96.3156 100.306 95.4927 98.8146 94.5286C98.3871 98.2501 93.164 105.557 90.9838 111.363C90.5532 112.511 90.178 113.699 90.1359 114.923C90.0579 117.227 91.3098 119.664 93.813 118.216Z" fill="#EEC9B1"/>
<path d="M91.0444 119.174C91.6942 119.564 92.7753 119.85 94.2621 118.993L94.3775 118.924C95.7122 118.117 96.8463 116.788 97.6599 115.082C98.6108 113.088 99.2645 110.897 99.8971 108.779C100.218 107.699 100.552 106.583 100.913 105.536C101.168 104.801 101.414 104.049 101.663 103.29C102.224 101.581 102.803 99.8162 103.498 98.1602L103.836 97.3552L103.041 96.9956C102.963 96.9605 102.902 96.9215 102.852 96.8747C102.509 96.5533 102.212 96.2593 101.934 95.9839C101.147 95.2039 100.468 94.5299 99.3011 93.7756L98.0889 92.9917L97.9236 94.4262C97.7044 96.3412 95.9844 99.5035 94.1638 102.852C92.6684 105.6 91.124 108.441 90.145 111.049C89.7238 112.169 89.287 113.502 89.2402 114.893C89.1754 116.797 89.8837 118.476 91.0444 119.174Z" fill="#EDAC7C"/>
<path d="M101.756 95.3305C101.757 95.3251 102.747 92.3359 103.128 92.2197C103.511 92.1035 104.19 92.375 104.19 92.375L103.045 96.6613C103.045 96.6613 104.641 93.0731 105.264 92.765C105.886 92.4561 106.582 92.7821 106.582 92.7821L104.678 97.7174C104.678 97.7174 105.804 94.1527 106.469 93.5918C107.136 93.0325 107.924 93.2704 107.924 93.2704L106.317 98.5926L106.173 97.9195C106.173 97.9195 107.271 96.0341 107.944 95.8906C108.615 95.7455 109.262 95.9077 109.262 95.9077C109.262 95.9077 108.054 97.8259 107.533 99.0583C107.011 100.291 106.066 100.519 106.066 100.519C103.947 99.8696 102.139 98.2869 100.397 96.9343C99.0496 95.8875 98.0886 92.9912 98.0886 92.9912C98.0886 92.9912 99.9163 91.3001 101.756 95.3305Z" fill="#EDAC7C"/>
<path d="M15.9669 104.122C15.9419 104.093 15.9169 104.063 15.8928 104.032C14.931 102.839 14.4606 101.305 14.3124 99.7774C13.9981 96.5285 14.4645 93.0651 14.5152 89.7937C14.555 87.2461 14.7321 84.5463 14.6018 81.9207C14.7719 81.9075 14.9419 81.8716 15.1057 81.8014C16.7375 81.1025 17.6174 80.5471 19.3483 80.15C18.4802 83.7936 20.8959 92.4434 20.9646 98.6455C20.9778 99.8718 20.9248 101.116 20.5465 102.282C19.8343 104.474 17.8257 106.338 15.9669 104.122Z" fill="#EEC9B1"/>
<path d="M18.2427 105.967C17.4986 106.113 16.3854 106.013 15.2801 104.699L15.1943 104.595C14.2154 103.381 13.6023 101.745 13.4197 99.8637C13.2068 97.6647 13.3402 95.3831 13.4689 93.1764C13.5344 92.0516 13.6023 90.8885 13.6194 89.7801C13.6311 89.0032 13.6561 88.2115 13.681 87.4135C13.7372 85.6163 13.7949 83.759 13.7068 81.9649L13.6631 81.0928L14.5336 81.0265C14.6187 81.0211 14.6896 81.0047 14.7528 80.9774C15.1857 80.7933 15.5633 80.6178 15.9198 80.4532C16.9252 79.9883 17.7934 79.5873 19.1476 79.2761L20.5547 78.9524L20.2209 80.358C19.7731 82.2325 20.3114 85.7925 20.88 89.5609C21.3473 92.6538 21.8301 95.8519 21.8613 98.6374C21.8746 99.834 21.8301 101.235 21.3995 102.559C20.8106 104.371 19.5719 105.708 18.2427 105.967Z" fill="#EDAC7C"/>
<path d="M16.3098 79.9004C16.3098 79.8942 16.4002 76.7468 16.0812 76.5073C15.7606 76.2678 15.0297 76.2904 15.0297 76.2904L14.6436 80.7109C14.6436 80.7109 14.3682 76.7936 13.8877 76.2912C13.408 75.7889 12.6428 75.8575 12.6428 75.8575L12.7481 81.1462C12.7481 81.1462 12.9064 77.4113 12.472 76.6578C12.0375 75.9043 11.2153 75.8583 11.2153 75.8583L10.9096 81.4098L11.2746 80.8264C11.2746 80.8264 10.8854 78.6805 10.3027 78.3146C9.71999 77.9496 9.05774 77.8809 9.05774 77.8809C9.05774 77.8809 9.53824 80.097 9.60767 81.4332C9.67709 82.7694 10.4875 83.3053 10.4875 83.3053C12.7021 83.4192 14.9408 82.5479 17.0407 81.87C18.6639 81.3466 20.5547 78.9519 20.5547 78.9519C20.5547 78.9519 19.4143 76.739 16.3098 79.9004Z" fill="#EDAC7C"/>
<path d="M77.2004 86.9146C77.2004 86.9146 87.3541 95.0309 89.7754 99.7821L79.1013 107.487L71.0225 95.5402L77.2004 86.9146Z" fill="#122738"/>
<path d="M39.5073 86.9138C39.5073 86.9138 30.7748 91.1931 25.5579 93.9622L30.2631 105.479L45.1743 99.9818L39.5073 86.9138Z" fill="#122738"/>
<path d="M59.8589 245.451C58.4142 245.753 56.1864 244.909 54.514 247.497C52.9025 249.992 49.1138 249.953 48.8408 249.948C51.372 250.272 54.3643 250.113 55.1233 249.009C56.2777 247.331 59.0609 246.993 59.0609 246.993C60.6701 246.993 61.9595 245.664 61.9104 244.057C61.9072 243.963 61.9049 243.861 61.9026 243.764C61.3823 244.477 60.6389 245.288 59.8589 245.451Z" fill="#1C0906"/>
<path d="M212.752 45.1425L213.953 45.5684C215.23 46.02 215.897 47.421 215.446 48.6971L215.009 49.9296C214.557 51.2049 213.156 51.8734 211.88 51.421L210.679 50.9959C209.403 50.5435 208.735 49.1425 209.187 47.8664L209.623 46.6347C210.075 45.3585 211.476 44.6908 212.752 45.1425ZM226.626 12.3372C229.748 13.4425 231.713 15.3988 232.521 18.2046C233.169 20.4223 233.071 22.7218 232.227 25.1041C230.816 29.0877 227.67 32.2375 222.788 34.5527C221.086 35.36 219.9 36.58 219.228 38.2149C218.991 38.7547 218.751 39.3632 218.511 40.041C218.06 41.3172 216.659 41.9849 215.383 41.5332L214.182 41.1073C212.906 40.6557 212.237 39.2547 212.69 37.9786C213.977 34.3436 215.827 31.9606 218.24 30.8264C220.846 29.6002 222.865 28.1088 224.297 26.3506C225.122 25.3256 225.765 24.1657 226.223 22.8724C226.695 21.5377 226.769 20.3848 226.443 19.4145C226.097 18.2982 225.27 17.6001 223.96 17.3208C222.738 17.0502 221.609 17.5634 220.571 18.8598C220.52 18.9222 220.468 18.9862 220.418 19.0525C219.676 20.0143 218.336 20.2819 217.279 19.6836L216.242 19.0978C214.958 18.3723 214.598 16.682 215.478 15.4994C216.353 14.3247 217.407 13.3793 218.641 12.6632C219.978 11.8886 221.576 11.5532 223.435 11.657C224.412 11.7038 225.476 11.93 226.626 12.3372Z" fill="#FCC822"/>
<path d="M128.843 48.7673L130.598 49.1105C132.464 49.4755 133.68 51.2844 133.315 53.1487L132.963 54.9506C132.598 56.8157 130.79 58.0318 128.924 57.6667L127.168 57.3235C125.303 56.9584 124.087 55.1503 124.452 53.2852L124.804 51.4834C125.169 49.6183 126.977 48.4014 128.843 48.7673ZM141.358 0.343243C145.921 1.23639 149.054 3.54842 150.755 7.27857C152.111 10.2256 152.449 13.4401 151.767 16.9222C150.627 22.7475 146.905 27.7694 140.602 31.991C138.404 33.4629 137.007 35.4021 136.411 37.8101C136.192 38.6096 135.985 39.5043 135.792 40.4949C135.427 42.36 133.619 43.5769 131.753 43.211L129.997 42.8678C128.131 42.5028 126.915 40.6946 127.28 38.8296C128.321 33.5152 130.399 29.8232 133.517 27.7522C136.884 25.5127 139.382 23.0244 141.009 20.2873C141.944 18.6936 142.597 16.951 142.967 15.0595C143.349 13.1086 143.213 11.4923 142.56 10.2107C141.851 8.73256 140.559 7.93302 138.68 7.81523C136.928 7.69043 135.464 8.63505 134.291 10.6499C134.233 10.7474 134.174 10.8472 134.117 10.9494C133.285 12.4385 131.479 13.0852 129.887 12.4728L128.326 11.8722C126.394 11.1288 125.545 8.85502 126.525 7.03129C127.498 5.21926 128.768 3.68883 130.334 2.44077C132.031 1.08974 134.182 0.29488 136.786 0.0561867C138.152 -0.0811005 139.676 0.0140686 141.358 0.343243Z" fill="#FCC822"/>
<path d="M100.524 79.9543L101.759 79.6377C103.069 79.3007 104.405 80.0909 104.742 81.4013L105.067 82.6681C105.404 83.9786 104.614 85.3148 103.303 85.651L102.068 85.9684C100.757 86.3046 99.421 85.5152 99.0848 84.2032L98.7596 82.9372C98.4226 81.6268 99.2128 80.2913 100.524 79.9543ZM93.7385 44.9876C96.946 44.1638 99.6675 44.6911 101.905 46.5679C103.678 48.0477 104.88 50.0102 105.508 52.4588C106.56 56.5524 105.706 60.9222 102.946 65.5665C101.983 67.1859 101.679 68.8606 102.034 70.5915C102.138 71.1719 102.279 71.8107 102.458 72.5073C102.795 73.8186 102.005 75.154 100.693 75.4902L99.4593 75.8077C98.148 76.1439 96.8126 75.3545 96.4756 74.0432C95.5169 70.3084 95.7221 67.2974 97.0918 65.0119C98.5716 62.54 99.4148 60.1757 99.6223 57.9175C99.7354 56.6062 99.6215 55.2856 99.2806 53.9564C98.9281 52.5851 98.3461 51.5875 97.5333 50.9634C96.6246 50.2302 95.5489 50.1124 94.3048 50.6116C93.1402 51.0687 92.4888 52.1241 92.3516 53.7786C92.3438 53.8597 92.3367 53.9408 92.3313 54.0243C92.2525 55.2373 91.2899 56.2061 90.0785 56.2997L88.8913 56.3917C87.4209 56.5048 86.1791 55.3036 86.2501 53.8309C86.3211 52.3683 86.6682 50.9954 87.293 49.713C87.9709 48.3246 89.1097 47.1545 90.7104 46.2036C91.5473 45.6966 92.5559 45.291 93.7385 44.9876Z" fill="#FCC822"/>
<path d="M289.534 80.1221L290.769 79.8054C292.079 79.4684 293.415 80.2586 293.752 81.569L294.077 82.8358C294.414 84.1471 293.624 85.4825 292.313 85.8195L291.078 86.1362C289.767 86.4731 288.431 85.683 288.095 84.3717L287.769 83.1057C287.432 81.7952 288.223 80.459 289.534 80.1221ZM282.748 45.156C285.956 44.3323 288.677 44.8596 290.915 46.7364C292.688 48.2161 293.89 50.1787 294.518 52.6265C295.57 56.7209 294.716 61.0907 291.956 65.735C290.993 67.3544 290.689 69.0283 291.044 70.76C291.148 71.3404 291.289 71.9792 291.468 72.675C291.805 73.9863 291.014 75.3225 289.704 75.6587L288.469 75.9761C287.158 76.3123 285.822 75.5229 285.486 74.2117C284.527 70.4769 284.732 67.4659 286.102 65.1796C287.581 62.7085 288.425 60.3442 288.632 58.0852C288.745 56.7739 288.631 55.4541 288.291 54.1249C287.938 52.7528 287.356 51.756 286.543 51.1319C285.634 50.3987 284.559 50.2809 283.315 50.7801C282.151 51.2364 281.499 52.2918 281.361 53.9471C281.354 54.0274 281.347 54.1093 281.342 54.1928C281.262 55.405 280.3 56.3746 279.088 56.4682L277.901 56.5602C276.432 56.6733 275.189 55.4713 275.26 53.9993C275.331 52.536 275.678 51.1631 276.303 49.8807C276.981 48.4923 278.12 47.323 279.72 46.3721C280.557 45.8651 281.567 45.4595 282.748 45.156Z" fill="#FCC822"/>
<path d="M149.729 126.448L154.931 104.475L145.47 104.117L140.498 124.401C140.147 125.833 140.229 127.336 140.732 128.72L149.775 153.604L160.605 152.559L149.729 126.448Z" fill="#A7A6BB"/>
<path d="M145.45 123.515C146.415 121.575 147.352 119.841 148.26 118.312C149.516 116.07 151.105 114.167 153.011 112.588L154.932 104.475L145.469 104.118L140.498 124.402C140.253 125.402 140.232 126.435 140.405 127.44C142.519 126.979 144.412 125.603 145.45 123.515Z" fill="#727293"/>
<path d="M158.948 198.939L158.718 200.007L157.508 205.619L152.154 230.46L151.57 233.159L151.44 233.768L150.363 245.566L149.095 245.95C145.875 246.928 142.585 246.716 139.715 245.539C138.539 245.056 137.341 243.882 136.505 242.95C135.559 241.893 134.794 240.679 134.201 239.391C132.498 235.688 132.105 231.471 132.016 227.444C131.985 226.083 131.993 224.722 131.993 223.36V210.012V198.341V194.1C132.977 194.1 134.08 193.977 134.87 193.923C135.58 193.877 136.857 193.639 137.589 193.639C140.458 192.655 143.417 192.924 146.186 192.587C147.501 192.427 148.774 192.351 149.972 192.302C151.642 192.235 153.169 192.334 154.471 192.657C157.204 193.338 158.948 195.132 158.948 198.939Z" fill="#1C1B2D"/>
<path d="M180.428 235.976L151.942 245.088L150.363 245.566L149.094 245.949C145.874 246.927 142.585 246.717 139.714 245.539C138.966 245.119 138.26 244.628 137.605 244.078C137.6 244.075 137.598 244.07 137.593 244.066C135.387 242.029 133.844 239.275 133.313 236.172L149.797 231.174L152.153 230.461L176.644 223.497L180.428 235.976Z" fill="#1C1B2D"/>
<path d="M195.514 238.031C195.148 236.442 194.508 234.475 194.366 233.854C193.822 231.472 193.017 229.147 192.333 226.804C192.083 225.946 191.777 225.353 191.672 225.166C191.619 225.079 191.626 225.084 191.672 225.166C191.748 225.291 191.948 225.599 192.339 226.134C191.623 225.156 191.049 224.234 190.576 223.124C190.042 221.872 189.632 220.617 189.324 219.368L171.713 224.628L175.7 237.983L183.963 235.515C184.473 235.363 185.009 235.653 185.162 236.162L186.012 239.011C186.275 239.894 186.655 240.708 187.113 241.46C187.592 241.293 188.081 241.153 188.581 241.046C190.765 240.575 192.846 239.802 194.936 239.054C195.114 238.706 195.304 238.364 195.514 238.031Z" fill="#361710"/>
<path d="M179.285 226.686C180.833 226.223 182.463 227.104 182.925 228.652C183.387 230.199 182.507 231.829 180.959 232.291C179.412 232.753 177.782 231.873 177.32 230.325C176.858 228.778 177.738 227.148 179.285 226.686Z" fill="white"/>
<path d="M186.088 239.244C187.835 244.636 193.576 247.674 199.035 246.044C199.545 245.891 199.835 245.355 199.683 244.846L197.034 235.975L186.088 239.244Z" fill="white"/>
<path d="M195.468 246.468C196.641 246.532 197.845 246.4 199.035 246.044C199.545 245.892 199.835 245.356 199.683 244.846L192.124 219.538C191.973 219.028 191.436 218.737 190.926 218.89L187.535 219.902L195.468 246.468Z" fill="white"/>
<path d="M180.135 156.139L178.6 159.284L170.555 175.76L157.315 202.881L132.341 192.767L139.988 175.38L145.472 162.916L153.87 143.821L180.135 156.139Z" fill="#A7A6BB"/>
<path d="M175.652 161.541C175.373 161.541 174.846 161.159 174.215 160.624C172.841 167.847 165.769 173.507 158.424 173.507C152.172 173.507 147.057 169.945 144.391 164.854L138.877 177.908L144.718 186.802C145.956 188.639 148.38 189.256 150.347 188.231L169.443 178.289L177.488 161.813C176.897 161.634 176.277 161.541 175.652 161.541Z" fill="#727293"/>
<path d="M167.486 165.506C166.04 165.506 164.663 165.297 163.354 164.942L147.326 197.771L132.739 191.863L132.341 192.767L157.314 202.882L177.241 162.067C174.446 164.208 170.999 165.506 167.486 165.506Z" fill="#727293"/>
<path d="M184.966 134.202C184.966 134.202 188.842 131.944 190.33 135.047C191.818 138.15 185.784 143.45 181.903 140.076L184.966 134.202Z" fill="#EDAC7C"/>
<path d="M183.805 136.429L182.227 139.453C185.846 141.718 190.252 137.181 188.759 135.709C187.554 134.517 184.989 135.7 183.805 136.429Z" fill="#F7A588"/>
<path d="M188.936 137.085C188.936 137.085 188.938 137.058 188.945 137.007C188.951 136.957 188.955 136.884 188.962 136.795C188.967 136.615 188.956 136.349 188.83 136.111C188.799 136.051 188.757 135.996 188.711 135.945C188.686 135.92 188.662 135.895 188.633 135.87L188.614 135.854L188.613 135.852C188.627 135.867 188.616 135.856 188.619 135.859L188.616 135.856L188.608 135.851L188.595 135.841L188.54 135.8C188.501 135.769 188.469 135.75 188.438 135.732C188.408 135.713 188.374 135.694 188.334 135.675C188.298 135.657 188.26 135.639 188.221 135.626C188.181 135.608 188.143 135.591 188.1 135.58C187.772 135.475 187.382 135.464 186.99 135.508C186.792 135.526 186.595 135.565 186.399 135.605C186.205 135.648 186.012 135.696 185.827 135.747C185.455 135.852 185.108 135.97 184.809 136.07C184.207 136.285 183.805 136.428 183.805 136.428C183.805 136.428 183.881 136.352 184.026 136.23C184.172 136.111 184.386 135.946 184.661 135.774C184.799 135.69 184.95 135.598 185.116 135.514C185.282 135.429 185.463 135.345 185.654 135.269C186.037 135.118 186.466 134.989 186.92 134.94C187.148 134.917 187.379 134.91 187.611 134.936C187.842 134.961 188.073 135.019 188.282 135.111C188.336 135.133 188.385 135.159 188.436 135.187C188.487 135.212 188.533 135.244 188.579 135.275C188.625 135.305 188.669 135.339 188.714 135.377C188.759 135.415 188.802 135.451 188.829 135.483L188.877 135.535L188.907 135.566L188.933 135.598C188.968 135.639 188.997 135.682 189.024 135.726C189.076 135.816 189.115 135.907 189.139 135.997C189.192 136.176 189.187 136.343 189.166 136.481C189.148 136.618 189.108 136.732 189.073 136.82C189.038 136.908 189 136.974 188.976 137.019C188.95 137.062 188.936 137.085 188.936 137.085Z" fill="#CF9166"/>
<path d="M161.357 124.43C161.357 124.43 160.211 120.094 156.966 121.238C153.719 122.381 154.243 130.395 159.374 130.752L161.357 124.43Z" fill="#EDAC7C"/>
<path d="M160.605 126.827L159.584 130.08C155.424 129.127 155.513 122.805 157.61 122.816C159.304 122.826 160.283 125.476 160.605 126.827Z" fill="#F7A588"/>
<path d="M156.512 123.664C156.512 123.664 156.528 123.644 156.56 123.604C156.591 123.563 156.638 123.509 156.699 123.442C156.821 123.31 157.016 123.128 157.275 123.049C157.339 123.03 157.407 123.02 157.478 123.017C157.512 123.018 157.547 123.015 157.581 123.02L157.609 123.022H157.611C157.59 123.021 157.607 123.021 157.603 123.021L157.606 123.022L157.616 123.023L157.632 123.025L157.701 123.035C157.749 123.04 157.786 123.051 157.82 123.059C157.856 123.066 157.893 123.077 157.934 123.093C157.973 123.105 158.011 123.119 158.049 123.137C158.088 123.153 158.127 123.169 158.166 123.191C158.473 123.347 158.757 123.616 159.004 123.924C159.13 124.077 159.243 124.243 159.353 124.41C159.46 124.578 159.563 124.748 159.657 124.916C159.845 125.254 160.008 125.58 160.149 125.863C160.423 126.442 160.605 126.826 160.605 126.826C160.605 126.826 160.606 126.717 160.589 126.53C160.572 126.343 160.536 126.073 160.462 125.758C160.425 125.601 160.382 125.429 160.323 125.252C160.265 125.074 160.199 124.888 160.117 124.698C159.953 124.322 159.741 123.928 159.455 123.571C159.311 123.395 159.149 123.226 158.967 123.08C158.786 122.935 158.584 122.812 158.369 122.73C158.316 122.707 158.261 122.691 158.207 122.676C158.153 122.657 158.099 122.645 158.042 122.637C157.991 122.625 157.935 122.618 157.875 122.613C157.817 122.608 157.761 122.604 157.719 122.608L157.65 122.609L157.606 122.61L157.566 122.614C157.512 122.618 157.459 122.629 157.408 122.64C157.31 122.669 157.218 122.705 157.136 122.75C156.973 122.841 156.859 122.963 156.776 123.073C156.69 123.184 156.641 123.292 156.602 123.38C156.564 123.468 156.545 123.541 156.531 123.59C156.518 123.638 156.512 123.664 156.512 123.664Z" fill="#CF9166"/>
<path d="M171.779 140.637L165.388 137.99C165.388 137.99 160.999 147.897 160.976 147.887C160.976 147.887 160.619 150.078 163.436 151.295C166.254 152.513 167.816 150.718 167.816 150.718C167.815 150.653 171.779 140.637 171.779 140.637Z" fill="#EDAC7C"/>
<path d="M169.725 145.955L162.901 143.584C162.901 143.584 161.378 147.072 161.353 147.062C161.353 147.062 161.091 148.812 163.907 150.031C166.726 151.248 168.195 149.741 168.195 149.741C168.194 149.676 169.725 145.955 169.725 145.955Z" fill="#CF9166"/>
<path d="M171.017 142.477L164.626 139.83C164.626 139.83 164.016 141.075 163.492 142.133C163.415 142.285 165.137 143.323 165.323 143.437C166.785 144.333 168.409 144.769 170.092 145.013C170.502 143.879 171.017 142.477 171.017 142.477Z" fill="#CF9166"/>
<path d="M187.754 124.175C182.146 124.175 177.448 121.313 174.615 117.05H159.167C158.882 117.979 158.623 118.992 158.398 120.114C156.7 128.572 158.917 139.577 167.446 143.108C175.977 146.639 185.991 140.87 189.289 132.901C190.492 129.994 190.682 126.912 190.036 123.994C189.282 124.112 188.519 124.175 187.754 124.175Z" fill="#3E150D"/>
<path d="M187.728 132.026C189.412 127.522 189.237 122.538 185.563 118.999C183.695 117.199 181.342 115.951 178.938 115.002C176.564 114.064 173.989 113.177 171.418 113.114C166.813 113.001 166.539 115.296 164.457 119.184C164.252 119.565 160.782 120.405 160.603 120.798C160.192 121.699 159.749 122.572 159.403 123.504C158.625 125.6 158.097 127.806 157.959 130.044C157.791 132.76 158.241 135.53 159.557 137.962C160.305 139.345 161.312 140.582 162.485 141.636C164.424 143.374 166.476 144.533 169.029 145.078C170.76 145.449 172.547 145.572 174.295 145.342C177.197 144.962 179.82 143.59 181.92 141.619C183.686 139.959 185.085 137.936 186.18 135.789C186.78 134.614 187.314 133.388 187.698 132.126C187.708 132.092 187.716 132.058 187.728 132.026Z" fill="#EDAC7C"/>
<path d="M176.324 131.012C175.753 132.253 176.214 133.684 177.355 134.208C178.496 134.732 179.883 134.149 180.456 132.908C181.028 131.666 180.566 130.237 179.426 129.712C178.284 129.188 176.896 129.77 176.324 131.012Z" fill="#CF9166"/>
<path d="M176.499 130.116C175.927 131.357 176.389 132.787 177.529 133.312C178.671 133.836 180.059 133.254 180.631 132.013C181.203 130.772 180.742 129.34 179.601 128.816C178.46 128.294 177.07 128.875 176.499 130.116Z" fill="black"/>
<path d="M177.489 129.834C177.281 130.283 177.485 130.818 177.943 131.027C178.4 131.238 178.939 131.045 179.146 130.594C179.353 130.145 179.149 129.61 178.692 129.4C178.235 129.19 177.696 129.383 177.489 129.834Z" fill="white"/>
<path d="M163.459 126.256C162.888 127.498 163.349 128.929 164.49 129.452C165.631 129.976 167.02 129.393 167.591 128.153C168.162 126.912 167.701 125.481 166.561 124.957C165.42 124.434 164.031 125.014 163.459 126.256Z" fill="#CF9166"/>
<path d="M163.701 125.73C163.129 126.972 163.591 128.402 164.732 128.926C165.873 129.451 167.261 128.869 167.832 127.627C168.405 126.387 167.943 124.954 166.803 124.431C165.662 123.908 164.272 124.49 163.701 125.73Z" fill="black"/>
<path d="M164.69 125.449C164.484 125.897 164.686 126.432 165.144 126.642C165.602 126.853 166.141 126.659 166.349 126.209C166.555 125.759 166.353 125.225 165.894 125.014C165.437 124.805 164.898 124.999 164.69 125.449Z" fill="white"/>
<path d="M171.606 126.567C171.606 126.567 170.859 131.432 169.492 130.993C166.843 130.146 166.039 135.96 170.433 134.356C172.092 133.752 172.942 126.791 172.942 126.791L171.606 126.567Z" fill="#F48470"/>
<path d="M163.115 123.635C163.115 123.635 163.197 123.566 163.363 123.476C163.446 123.432 163.549 123.374 163.671 123.328C163.792 123.275 163.931 123.228 164.089 123.182C164.245 123.136 164.417 123.097 164.6 123.065C164.785 123.037 164.983 123.009 165.188 123.005C165.391 122.99 165.603 123 165.819 123.013C166.036 123.023 166.251 123.068 166.469 123.097C166.681 123.145 166.895 123.196 167.101 123.256C167.304 123.324 167.503 123.398 167.691 123.473C167.877 123.56 168.052 123.65 168.217 123.736C168.382 123.824 168.525 123.928 168.66 124.016C168.792 124.108 168.915 124.189 169.012 124.281C169.111 124.366 169.196 124.445 169.265 124.509C169.402 124.636 169.474 124.717 169.474 124.717C169.474 124.717 169.366 124.69 169.189 124.633C169.1 124.604 168.992 124.571 168.872 124.528C168.756 124.482 168.617 124.444 168.468 124.397C168.32 124.353 168.167 124.291 167.998 124.244C167.828 124.197 167.654 124.146 167.474 124.089C167.291 124.042 167.104 123.998 166.914 123.944C166.723 123.903 166.53 123.861 166.335 123.82C166.236 123.803 166.139 123.787 166.042 123.771C165.944 123.754 165.849 123.732 165.751 123.724C165.654 123.714 165.558 123.7 165.464 123.686C165.369 123.67 165.276 123.669 165.182 123.658C164.996 123.636 164.816 123.629 164.643 123.617C164.556 123.608 164.473 123.613 164.392 123.608C164.31 123.606 164.231 123.601 164.154 123.603C164.002 123.601 163.86 123.601 163.736 123.604C163.608 123.605 163.499 123.613 163.405 123.615C163.317 123.623 163.241 123.622 163.193 123.629C163.141 123.633 163.115 123.635 163.115 123.635Z" fill="black"/>
<path d="M182.83 127.615C182.83 127.615 182.783 127.519 182.67 127.366C182.61 127.294 182.543 127.199 182.452 127.105C182.362 127.008 182.253 126.906 182.132 126.799C182.009 126.693 181.868 126.587 181.712 126.483C181.554 126.381 181.387 126.274 181.202 126.186C181.022 126.088 180.825 126.009 180.624 125.933C180.423 125.852 180.209 125.804 179.999 125.741C179.784 125.696 179.57 125.654 179.356 125.625C179.142 125.603 178.93 125.588 178.727 125.579C178.524 125.582 178.327 125.59 178.141 125.601C177.956 125.614 177.783 125.649 177.623 125.674C177.464 125.703 177.319 125.728 177.193 125.769C177.067 125.806 176.958 125.844 176.869 125.873C176.69 125.933 176.592 125.976 176.592 125.976C176.592 125.976 176.701 125.997 176.886 126.018C176.979 126.029 177.09 126.043 177.217 126.053C177.344 126.059 177.485 126.081 177.64 126.1C177.793 126.121 177.958 126.128 178.132 126.155C178.305 126.182 178.485 126.208 178.672 126.23C178.858 126.263 179.049 126.301 179.243 126.329C179.434 126.37 179.627 126.412 179.822 126.455C179.918 126.48 180.013 126.505 180.109 126.53C180.203 126.556 180.3 126.575 180.393 126.608C180.485 126.639 180.578 126.666 180.67 126.691C180.763 126.717 180.85 126.754 180.938 126.783C181.117 126.839 181.284 126.907 181.447 126.969C181.529 126.995 181.602 127.034 181.678 127.064C181.755 127.094 181.83 127.123 181.897 127.156C182.036 127.217 182.166 127.274 182.278 127.331C182.394 127.384 182.49 127.436 182.572 127.476C182.652 127.521 182.72 127.552 182.763 127.577C182.807 127.601 182.83 127.615 182.83 127.615Z" fill="black"/>
<path d="M187.899 132.263C187.899 132.263 188.83 130.639 189.733 128.411C188.783 130.664 187.899 132.263 187.899 132.263Z" fill="#CF9166"/>
<path d="M189.144 116.337C188.226 116.428 187.271 116.407 186.353 116.426C184.149 116.475 181.943 116.41 179.738 116.451C178.426 116.475 177.116 116.532 175.808 116.635C175.696 116.643 172.661 116.954 172.755 116.915C170.493 117.224 168.239 117.618 165.985 117.963C165.111 118.097 164.253 118.171 163.403 118.21C165.954 118.749 169.258 118.593 171.562 118.368C171.438 118.406 171.328 118.436 171.194 118.482C168.813 119.291 170.781 121.94 174.958 123.721C180.739 126.185 185.977 125.208 185.977 125.208C185.977 125.208 185.043 126.904 184.84 129.891C184.702 131.937 185.208 134.441 185.541 135.817C185.695 136.451 185.811 136.846 185.811 136.846L185.051 138.213C185.051 138.213 186.732 135.372 189.729 131.675C195.976 123.97 195.318 119.499 194.112 117.325C192.419 117.237 190.736 116.917 189.144 116.337Z" fill="#361710"/>
<path d="M188.738 126.139C188.738 126.139 176.308 126.675 155.559 118.424C145.631 114.476 161.872 114.195 161.872 114.195L181.084 113.756L188.738 126.139Z" fill="#2D2C44"/>
<path d="M191.277 129.763C191.277 129.763 190.55 128.23 188.738 126.139C186.653 123.732 183.132 120.585 177.635 118.189C167.369 113.715 161.872 114.196 161.872 114.196C161.872 114.196 162.708 108.167 170.655 105.166C173.742 104 176.922 103.687 179.962 104.182C185.064 105.013 189.774 108.114 193.002 113.269C198.127 121.453 191.277 129.763 191.277 129.763Z" fill="#2D2C44"/>
<path d="M188.738 126.14C186.654 123.732 183.132 120.585 177.636 118.189C167.369 113.714 161.872 114.196 161.872 114.196C161.872 114.196 162.708 108.167 170.655 105.165C173.742 103.999 176.923 103.687 179.963 104.182C182.592 105.324 185.078 107.101 187.261 109.507C193.104 115.95 189.704 124.15 188.738 126.14Z" fill="#A7A6BB"/>
<path d="M186.92 134.94C186.92 134.94 178.405 138.296 174.92 140.861C174.005 141.536 173.514 143.821 170.525 143.821C166.823 143.821 167.406 142.054 164.98 140.379C163.622 139.441 160.743 138.491 159.927 137.314C158.132 134.727 158.145 126.408 158.145 126.408C158.145 126.408 155.677 132.859 157.557 138.981C158.365 141.611 159.391 148.451 168.523 148.789C177.16 149.108 178.507 146.45 180.192 144.713C181.877 142.979 186.92 134.94 186.92 134.94Z" fill="#361710"/>
<path d="M128.399 129.036L131.838 130.747C135.491 132.563 136.98 136.997 135.164 140.65L133.409 144.178C131.593 147.831 127.159 149.32 123.506 147.503L120.067 145.792C116.414 143.976 114.925 139.542 116.741 135.889L118.496 132.362C120.312 128.709 124.746 127.22 128.399 129.036Z" fill="#FCC822"/>
<path d="M136.861 151.769L135.667 149.141C135.369 148.26 135.259 147.328 135.341 146.403L135.872 140.492C135.943 139.72 135.703 138.951 135.207 138.356L130.447 132.636C130.143 132.271 129.57 132.315 129.326 132.722C129.181 132.965 129.198 133.27 129.369 133.495L131.576 136.388L129.53 134.762C129.134 134.448 128.545 134.614 128.372 135.09C128.269 135.373 128.349 135.691 128.573 135.892L131.768 138.777L128.751 136.818C128.336 136.548 127.776 136.736 127.606 137.202C127.479 137.552 127.621 137.943 127.943 138.132L130.714 139.747L127.76 138.76C127.404 138.641 127.017 138.828 126.889 139.181C126.771 139.506 126.91 139.868 127.214 140.03L128.914 140.935C130.042 141.538 130.65 142.803 130.414 144.059L129.861 147.01C129.548 148.682 129.884 150.411 130.801 151.843L132.3 154.184L136.861 151.769Z" fill="#EDAC7C"/>
<path d="M174.27 156.258L153.833 167.2C152.478 167.927 150.79 167.488 149.959 166.194L138.012 147.777L129.119 152.622L146.327 180.765C147.567 182.603 149.989 183.218 151.955 182.195L180.2 167.489C182.998 166.032 184.302 162.742 183.263 159.764C181.978 156.081 177.708 154.417 174.27 156.258Z" fill="#A7A6BB"/>
<path d="M162.207 192.681C162.207 203.813 153.183 212.841 142.046 212.841L122.553 211.101L108.627 209.856V206.607C108.627 198.915 114.862 192.681 122.553 192.681H162.207Z" fill="#2D2C44"/>
<path d="M122.153 192.681V246.775L109.936 244.248L108.377 206.607C108.377 198.915 114.281 192.681 122.153 192.681Z" fill="#2D2C44"/>
<path d="M101.289 237.07C95.6216 237.202 91.0677 241.833 91.0677 247.531C91.0677 248.063 91.4991 248.494 92.0311 248.494H101.289V237.07Z" fill="white"/>
<path d="M108.715 227.478V236.102C108.715 236.633 108.284 237.064 107.752 237.064H101.534C101.214 237.064 100.898 237.079 100.585 237.107V245.501H122.653V227.478H108.715Z" fill="#361710"/>
<path d="M118.513 234.146C118.513 235.761 117.204 237.07 115.589 237.07C113.974 237.07 112.664 235.761 112.664 234.146C112.664 232.53 113.974 231.221 115.589 231.221C117.204 231.221 118.513 232.53 118.513 234.146Z" fill="white"/>
<path d="M91.6828 243.992C91.2858 245.097 91.0674 246.288 91.0674 247.531C91.0674 248.063 91.4987 248.493 92.0307 248.493H121.689C122.221 248.493 122.653 248.063 122.653 247.531V243.992H91.6828Z" fill="white"/>
<path d="M181.846 35.9378C190.781 40.3809 195.95 46.9488 197.349 55.6376C198.479 62.5074 197.349 69.3507 193.958 76.1706C188.285 87.5763 177.726 95.8549 162.28 101.006C156.893 102.801 152.9 106.022 150.296 110.666C149.388 112.195 148.452 113.928 147.487 115.87C145.67 119.522 141.236 121.011 137.584 119.194L134.144 117.484C130.491 115.668 129.002 111.233 130.818 107.581C135.994 97.1739 142.396 90.716 150.026 88.2027C158.27 85.4827 164.854 81.7541 169.778 77.0154C172.62 74.2486 174.963 71.0145 176.805 67.3101C178.705 63.4887 179.343 60.0667 178.72 57.0433C178.094 53.5799 175.873 51.1914 172.053 49.8778C168.498 48.6235 164.932 49.746 161.358 53.2484C161.18 53.4169 161.003 53.59 160.827 53.7687C158.258 56.3779 154.153 56.6899 151.206 54.5159L148.318 52.3857C144.741 49.7476 144.277 44.5587 147.343 41.3419C150.388 38.1445 153.886 35.7006 157.836 34.0079C162.118 32.178 167.022 31.756 172.546 32.7427C175.452 33.2357 178.553 34.2997 181.846 35.9378Z" fill="#FCC822"/>
<path d="M167.534 141.203C167.775 141.203 167.982 141.039 168.043 140.806C168.283 139.876 169.122 139.188 170.127 139.188C171.134 139.188 171.971 139.876 172.212 140.806C172.272 141.039 172.48 141.203 172.721 141.203C173.059 141.203 173.325 140.887 173.243 140.559C172.891 139.162 171.634 138.126 170.127 138.126C168.62 138.126 167.364 139.162 167.012 140.559C166.929 140.887 167.195 141.203 167.534 141.203Z" fill="#F05B4E"/>
<path d="M176.892 140.272C176.401 137.938 174.749 136.01 172.534 135.167C172.118 135.008 171.645 135.083 171.315 135.381C170.949 135.711 170.549 136.064 170.127 136.064C169.684 136.064 169.265 135.692 168.884 135.348C168.559 135.054 168.097 134.972 167.683 135.121C165.688 135.837 164.099 137.438 163.411 139.479C163.198 140.111 163.508 140.843 164.147 141.035C164.772 141.222 165.39 140.871 165.578 140.285C166.218 138.291 168.127 136.899 170.314 137.025C172.502 137.152 174.239 138.755 174.644 140.808C174.747 141.323 175.179 141.705 175.702 141.735H175.703C176.472 141.735 177.051 141.025 176.892 140.272Z" fill="#361710"/>
<path d="M132.341 192.768C132.341 192.768 146.953 193.158 153.316 198.556C159.678 203.954 161.124 204.051 161.124 204.051C161.124 204.051 162.047 193.187 165.49 186.134C168.934 179.082 164.594 181.012 163.727 182.072C162.859 183.132 151.966 192.282 151.966 192.282L149.811 192.682L132.341 192.768Z" fill="#727293"/>
<path d="M218.985 85.9122C218.985 85.9122 218.023 89.6041 219.607 90.4465C221.193 91.2898 225.245 91.7313 225.286 90.4465C225.326 89.1626 226.45 87.9184 224.443 87.0354C222.436 86.1532 220.069 85.9122 220.069 85.9122H218.985Z" fill="#C9BDBD"/>
<path d="M257.776 42.6274C257.735 42.6352 257.694 42.6437 257.652 42.6531C257.325 42.7233 257.134 42.7896 257.134 42.7896V42.8044C257.056 42.8325 256.978 42.8575 256.902 42.891C252.683 44.7771 252.683 48.6376 252.683 48.6376L255.286 56.3592C255.286 56.3592 256.014 56.3943 257.104 56.2944L257.028 91.2643L257.407 91.4812C260.233 93.1029 263.706 93.1099 266.538 91.4976L266.95 91.2643C266.95 91.2643 267.455 77.2158 267.642 58.122C267.802 41.8692 260.079 42.1765 257.776 42.6274Z" fill="#161616"/>
<path d="M251.631 48.1403L253.191 46.0833C253.389 45.8228 253.755 45.7612 254.024 45.9468C255.728 47.1177 261.283 51.3673 260.524 56.4844L251.631 48.1403Z" fill="white"/>
<path d="M245.083 80.7451C245.086 80.7248 246.678 80.5462 246.774 80.529C248.165 80.2732 249.531 79.8543 250.827 79.288C254.835 77.536 257.916 74.3036 259.44 70.1959C260.533 67.2458 260.841 64.0539 260.721 60.9267C260.548 56.3401 259.488 51.3283 255.449 48.5248C252.009 46.1387 250.324 46.8634 250.324 46.8634C250.324 46.8634 245.085 80.7334 245.083 80.7451Z" fill="#161616"/>
<path d="M246.019 74.8703L239.013 74.4256C239.013 74.4256 238.049 85.3797 238.022 85.3782C238.022 85.3782 238.398 87.5982 241.504 87.8447C244.61 88.0888 245.522 85.8524 245.522 85.8524C245.499 85.79 246.019 74.8703 246.019 74.8703Z" fill="#F8D0B7"/>
<path d="M241.755 83.357C239.455 83.1753 238.621 82.3703 238.343 81.9647C238.633 78.7501 239.013 74.4256 239.013 74.4256L246.019 74.8702C246.019 74.8702 245.82 79.0536 245.674 82.2572C245.483 82.5068 244.503 83.5731 241.755 83.357Z" fill="#EFBDAC"/>
<path d="M243.023 78.3728L236.016 77.9281C236.016 77.9281 235.839 79.3244 235.683 80.5109C235.659 80.6832 237.653 81.1154 237.87 81.1637C239.567 81.5436 241.27 81.4305 242.967 81.1115C242.988 79.8876 243.023 78.3728 243.023 78.3728Z" fill="#CF9166"/>
<path d="M227.554 58.3135C227.75 56.9055 227.899 55.7121 229.032 54.3813C231.801 51.1293 236.221 49.2728 240.463 49.2799C246.846 49.2908 253.463 51.737 255.169 58.4133C255.754 60.6996 255.768 63.0975 255.542 65.4469C255.186 69.1521 254.194 72.8971 251.958 75.8737C249.279 79.4401 244.852 81.6257 240.392 81.5844C233.58 81.5212 228.129 77.8613 226.297 71.9197C224.978 67.6428 226.21 64.2925 227.228 60.1333C227.388 59.4773 227.475 58.8782 227.554 58.3135Z" fill="#F8D0B7"/>
<path d="M257.916 66.2203C257.932 66.2406 257.952 66.2687 257.952 66.2687C257.952 66.2687 257.948 66.239 257.941 66.1844C257.933 66.1314 257.921 66.0479 257.887 65.9465C257.852 65.8467 257.805 65.7211 257.71 65.5877C257.618 65.4543 257.487 65.3038 257.278 65.179C257.176 65.115 257.055 65.0596 256.922 65.0128C256.855 64.991 256.785 64.9707 256.711 64.9574L256.656 64.9457L256.594 64.9364L256.499 64.9223C256.441 64.9114 256.362 64.906 256.28 64.9028C256.197 64.8966 256.118 64.895 256.042 64.8982C255.963 64.8989 255.884 64.9013 255.806 64.9106C255.727 64.9184 255.647 64.9262 255.569 64.9411C255.479 64.9559 255.391 64.9816 255.302 65.0035C255.31 64.4044 255.289 63.8053 255.23 63.2117C256.006 63.1017 256.875 63.1774 257.838 63.5814C261.898 65.2866 259.888 73.0698 253.483 73.3936C253.648 73.0496 253.797 72.7001 253.936 72.3467C257.367 71.3514 258.63 67.9715 257.916 66.2203Z" fill="#F8D0B7"/>
<path d="M255.926 65.4338C255.983 65.4213 256.04 65.4143 256.098 65.4073C256.157 65.3971 256.211 65.3924 256.262 65.3901C256.312 65.3862 256.364 65.3823 256.433 65.3854L256.53 65.3862L256.554 65.387H256.566H256.572C256.567 65.3862 256.589 65.3885 256.561 65.3854H256.563L256.6 65.3885C256.652 65.3909 256.699 65.3987 256.748 65.4041C256.844 65.4197 256.937 65.4424 257.022 65.4743C257.365 65.6054 257.597 65.8339 257.738 65.9962C257.809 66.0789 257.863 66.1452 257.898 66.1951C257.909 66.2115 257.909 66.2091 257.916 66.2201C258.63 67.9712 257.367 71.3512 253.936 72.3457C254.59 70.6795 254.976 68.9167 255.169 67.1616C255.224 66.6584 255.264 66.1538 255.287 65.6467C255.441 65.5812 255.596 65.5118 255.753 65.472C255.81 65.4548 255.868 65.4447 255.926 65.4338Z" fill="#FFB7A1"/>
<path d="M255.806 64.9103C255.885 64.9002 255.963 64.8978 256.041 64.8971C256.118 64.8939 256.197 64.8955 256.279 64.9017C256.362 64.9056 256.441 64.9111 256.499 64.922L256.594 64.9361L256.655 64.9454L256.711 64.9571C256.784 64.9704 256.855 64.9907 256.922 65.0125C257.056 65.0585 257.176 65.1147 257.279 65.1786C257.486 65.3035 257.618 65.4532 257.711 65.5874C257.805 65.7208 257.852 65.8456 257.886 65.9462C257.921 66.0476 257.933 66.1303 257.942 66.1841C257.948 66.2387 257.951 66.2676 257.951 66.2676C257.951 66.2676 257.931 66.2403 257.917 66.22C257.908 66.2091 257.91 66.2114 257.897 66.1943C257.864 66.1451 257.808 66.0788 257.739 65.9961C257.597 65.8339 257.365 65.6053 257.021 65.4743C256.937 65.4423 256.843 65.4197 256.748 65.4041C256.699 65.3986 256.651 65.3908 256.601 65.3885L256.563 65.3854H256.561C256.588 65.3885 256.566 65.3861 256.572 65.3869H256.566H256.554L256.531 65.3861L256.434 65.3846C256.364 65.3815 256.311 65.3861 256.261 65.39C256.211 65.3924 256.157 65.3971 256.098 65.4072C256.04 65.4142 255.983 65.4212 255.925 65.4337C255.868 65.4446 255.81 65.4548 255.754 65.4719C255.595 65.5117 255.442 65.5811 255.286 65.6467C255.297 65.4329 255.3 65.2184 255.303 65.0031C255.392 64.9813 255.479 64.9556 255.569 64.9407C255.647 64.9259 255.727 64.9181 255.806 64.9103Z" fill="#FFA792"/>
<path d="M237.402 65.1967C237.402 65.1967 237.58 68.2599 236.16 67.9315C233.409 67.2996 233.089 73.2482 237.397 71.2544C239.023 70.5025 238.773 65.3105 238.773 65.3105L237.402 65.1967Z" fill="#F48470"/>
<path d="M232.655 73.3219C232.574 74.598 231.457 75.566 230.159 75.4834C228.861 75.4007 227.873 74.3 227.953 73.0239C228.035 71.7478 229.153 70.7805 230.451 70.8624C231.749 70.9451 232.736 72.0457 232.655 73.3219Z" fill="#FFB7A1"/>
<path d="M249.608 72.9039C249.527 74.1808 248.409 75.1481 247.109 75.0654C245.813 74.9835 244.826 73.8836 244.906 72.6075C244.988 71.3313 246.105 70.3641 247.402 70.446C248.701 70.5279 249.689 71.6293 249.608 72.9039Z" fill="#FFB7A1"/>
<path d="M228.474 63.335C228.474 63.335 228.54 63.2484 228.684 63.122C228.756 63.0596 228.845 62.98 228.956 62.9067C229.064 62.8279 229.192 62.7484 229.337 62.668C229.481 62.5877 229.643 62.5089 229.817 62.4379C229.994 62.3693 230.182 62.2959 230.385 62.246C230.584 62.186 230.795 62.1485 231.011 62.1134C231.228 62.0744 231.451 62.0705 231.673 62.0502C231.894 62.051 232.117 62.0526 232.335 62.0658C232.552 62.0885 232.765 62.1165 232.968 62.1485C233.17 62.1938 233.365 62.2429 233.546 62.2905C233.731 62.342 233.895 62.4122 234.048 62.4699C234.2 62.5307 234.34 62.5838 234.457 62.6524C234.575 62.7148 234.676 62.7741 234.759 62.8217C234.922 62.9169 235.011 62.98 235.011 62.98C235.011 62.98 234.898 62.9785 234.71 62.9613C234.617 62.9535 234.503 62.9442 234.373 62.9286C234.248 62.9091 234.101 62.902 233.944 62.8896C233.787 62.8794 233.621 62.8521 233.444 62.8435C233.266 62.8342 233.082 62.824 232.891 62.8069C232.699 62.8014 232.504 62.8006 232.304 62.7897C232.106 62.7921 231.905 62.7936 231.703 62.7967C231.602 62.8014 231.501 62.8077 231.402 62.8131C231.302 62.8194 231.202 62.8186 231.104 62.8318C231.005 62.8428 230.908 62.8513 230.811 62.8591C230.713 62.8638 230.621 62.8849 230.525 62.895C230.337 62.9145 230.156 62.9473 229.982 62.9738C229.895 62.9855 229.813 63.0089 229.732 63.0222C229.65 63.0378 229.571 63.0502 229.496 63.0705C229.345 63.1025 229.205 63.1337 229.082 63.1657C228.956 63.1946 228.849 63.2273 228.757 63.2507C228.671 63.2788 228.596 63.2944 228.55 63.3123C228.5 63.3272 228.474 63.335 228.474 63.335Z" fill="#161616"/>
<path d="M247.076 62.3164C247.076 62.3164 247.006 62.2322 246.859 62.1089C246.783 62.0512 246.693 61.9732 246.582 61.903C246.47 61.8281 246.338 61.7524 246.193 61.676C246.047 61.6011 245.882 61.5293 245.703 61.463C245.523 61.4006 245.334 61.3336 245.13 61.2914C244.93 61.2361 244.717 61.2056 244.5 61.1775C244.282 61.1456 244.059 61.1487 243.838 61.1354C243.615 61.1432 243.394 61.1526 243.176 61.1736C242.959 61.2025 242.747 61.2376 242.544 61.2774C242.344 61.3281 242.152 61.3835 241.971 61.4373C241.792 61.4935 241.629 61.5699 241.476 61.6315C241.326 61.6978 241.189 61.7571 241.075 61.8273C240.959 61.8936 240.859 61.9568 240.78 62.0067C240.617 62.1081 240.53 62.1737 240.53 62.1737C240.53 62.1737 240.643 62.1698 240.831 62.1456C240.924 62.1354 241.038 62.1222 241.166 62.1027C241.292 62.0777 241.437 62.0668 241.594 62.0481C241.749 62.034 241.916 62.0021 242.093 61.9864C242.271 61.9724 242.454 61.9552 242.643 61.9318C242.835 61.9217 243.032 61.9131 243.231 61.8952C243.429 61.8905 243.629 61.8874 243.831 61.8819C243.932 61.8843 244.033 61.8866 244.133 61.8889C244.232 61.8921 244.331 61.8882 244.431 61.8999C244.53 61.9077 244.628 61.9123 244.725 61.9155C244.822 61.9186 244.917 61.9357 245.011 61.9428C245.201 61.956 245.381 61.9833 245.557 62.0052C245.644 62.0114 245.726 62.034 245.808 62.0442C245.891 62.0567 245.971 62.0676 246.046 62.0832C246.197 62.112 246.339 62.1378 246.462 62.1666C246.59 62.1908 246.697 62.2197 246.788 62.24C246.877 62.2665 246.952 62.2797 247 62.2953C247.049 62.3078 247.076 62.3164 247.076 62.3164Z" fill="#050607"/>
<path d="M242.62 65.3199C242.383 66.1951 242.903 67.082 243.779 67.3012C244.655 67.5204 245.557 66.9892 245.791 66.1132C246.029 65.2388 245.51 64.3503 244.633 64.1311C243.757 63.9127 242.855 64.4447 242.62 65.3199Z" fill="#050607"/>
<path d="M243.28 65.0265C243.195 65.3432 243.41 65.6716 243.762 65.759C244.113 65.8479 244.467 65.6623 244.553 65.3448C244.638 65.0281 244.422 64.6997 244.07 64.6123C243.719 64.5234 243.365 64.7099 243.28 65.0265Z" fill="white"/>
<path d="M233.307 64.9383C233.543 65.8135 233.024 66.7012 232.148 66.9204C231.271 67.1396 230.37 66.6083 230.134 65.7324C229.898 64.8572 230.417 63.9695 231.293 63.7503C232.169 63.5319 233.071 64.0639 233.307 64.9383Z" fill="#050607"/>
<path d="M232.647 64.6457C232.732 64.9624 232.516 65.2908 232.165 65.3781C231.813 65.4671 231.459 65.2814 231.374 64.9632C231.288 64.6473 231.505 64.3189 231.856 64.2315C232.207 64.1426 232.561 64.329 232.647 64.6457Z" fill="white"/>
<path d="M248.495 57.821C248.495 57.821 253.99 74.6379 248.962 79.666C248.962 79.666 256.265 75.6636 256.93 57.3109L248.495 57.821Z" fill="#161616"/>
<path d="M255.902 61.3249C257.789 61.0215 257.921 52.973 257.634 51.8763C256.65 48.104 251.265 45.7865 247.977 44.5533C242.797 42.6118 236.286 42.2927 231.601 45.657C229.091 47.4613 227.859 49.9995 226.688 52.7663C226.472 53.2765 224.132 59.7087 224.118 59.7087C224.119 59.7087 241.953 60.6166 241.813 60.6088L243.498 60.6946C243.498 60.6946 254.575 61.5379 255.902 61.3249Z" fill="#161616"/>
<path d="M269.915 111.36H269.799C268.436 111.367 267.11 111.846 265.933 112.548C267.183 114.185 268.586 115.693 270.391 116.741C270.511 116.811 270.625 116.871 270.737 116.927C270.969 116.658 271.187 116.378 271.38 116.079C272.632 114.14 272.81 111.405 269.915 111.36Z" fill="#E8B79E"/>
<path d="M230.39 161.013C230.39 161.013 231.283 188.458 231.343 191.014C231.402 193.568 234.955 216.442 235.385 222.047C235.815 227.652 234.276 239.167 233.029 243.758L231.515 247.653C231.515 247.653 236.372 249.596 238.259 248.751C241.229 247.418 241.825 242.699 242.573 239.923C243.365 236.979 243.953 233.93 243.827 230.868C243.706 227.923 242.088 225.687 241.472 222.88C239.792 215.235 242.652 207.325 243.06 199.676C243.424 192.852 242.507 186.043 241.486 179.312C240.532 173.033 243.439 167.473 243.138 161.263C243.138 161.263 231.558 153.014 230.259 159.712" fill="#EFC8B1"/>
<path d="M232.494 245.134C232.419 245.472 233.41 245.83 233.635 245.931C235.271 246.672 237.865 247.388 239.212 245.727C240.857 243.706 241.235 240.199 241.932 237.758C242.721 234.995 243.542 231.818 243.297 228.916L243.182 227.549C243.182 227.549 247.03 229.9 246.788 233.164C246.546 236.428 243.263 241.901 243.058 245.315C242.932 247.419 241.908 249.511 240.19 250.76C237.563 252.67 233.027 252.534 230.219 251.094C229.181 250.562 228.362 248.087 229.722 247.461C231.418 246.682 234.162 238.71 233.875 238.442L233.029 243.759C233.029 243.759 232.494 245.131 232.494 245.134Z" fill="#122738"/>
<path d="M246.606 233.97C246.606 233.97 245.515 240.997 246.04 244.928L244.896 245.306L243.755 240.034L246.606 233.97Z" fill="#312E2F"/>
<path d="M256.433 233.971C256.433 233.971 255.511 244.49 256.037 248.422L254.365 248.469L253.582 240.035L256.433 233.971Z" fill="#0C1B26"/>
<path d="M239.093 161.013C239.093 161.013 241.11 188.458 241.169 191.014C241.229 193.568 244.781 216.442 245.212 222.047C245.642 227.652 244.103 239.167 242.856 243.758L241.342 247.653C241.342 247.653 246.199 249.596 248.086 248.751C251.056 247.418 251.652 242.699 252.4 239.923C253.192 236.979 253.779 233.93 253.654 230.868C253.533 227.923 251.914 225.687 251.297 222.88C249.619 215.235 252.478 207.325 252.886 199.676C253.251 192.852 252.333 186.043 251.312 179.312C250.359 173.033 253.265 167.473 252.965 161.263C252.965 161.263 240.262 153.014 238.963 159.712" fill="#F8D0B7"/>
<path d="M242.321 245.134C242.246 245.472 243.237 245.83 243.462 245.931C245.097 246.672 247.692 247.388 249.039 245.727C250.685 243.706 251.062 240.199 251.758 237.758C252.548 234.995 253.368 231.818 253.124 228.916L253.009 227.549C253.009 227.549 256.857 229.9 256.615 233.164C256.372 236.428 253.09 241.901 252.885 245.315C252.758 247.419 251.736 249.511 250.016 250.76C247.39 252.67 242.854 252.534 240.046 251.094C239.008 250.562 238.189 248.087 239.549 247.461C241.245 246.682 243.988 238.71 243.702 238.442L242.856 243.759C242.856 243.759 242.321 245.131 242.321 245.134Z" fill="#122738"/>
<path d="M251.932 102.044C252.887 97.5322 256.227 92.9198 256.432 91.9066C251.166 86.646 246.466 84.7778 245.36 84.433L238.812 84.4619C237.06 85.174 235.295 85.8511 233.538 86.5485C232.877 86.8098 232.26 86.9479 231.843 87.5227C231.333 88.2263 231.073 89.4323 230.737 90.2482C229.818 92.4783 228.871 94.742 228.417 97.132C228.124 98.675 228.489 100.337 229.114 102.044H251.932Z" fill="#F8D0B7"/>
<path d="M258.49 136.513C256.411 130.564 253.606 124.82 252.558 118.564C248.913 120.109 235.056 119.637 232.355 117.248C231.763 125.022 227.776 132.453 225.883 140.022C224.7 144.752 223.712 149.562 223.535 154.446C223.351 159.557 225.192 175.069 225.567 180.778C240.575 190.489 257.632 181.175 258.312 179.414C261.878 170.18 261.704 156.368 260.822 146.421C260.518 142.984 259.61 139.719 258.49 136.513Z" fill="#122738"/>
<path d="M225.883 140.021C225.804 140.334 225.73 140.649 225.654 140.963C230.987 143.817 251.775 145.535 259.627 140.11C259.29 138.9 258.905 137.702 258.489 136.513C256.492 130.799 253.83 125.271 252.694 119.299L249.515 119.226C246.231 119.606 241.498 119.513 237.763 118.96L233.4 118.861C233.4 118.861 231.828 130.773 226.767 136.919C226.443 137.952 226.142 138.985 225.883 140.021Z" fill="#0B1C28"/>
<path d="M238.332 95.8041C238.318 95.5795 238.291 95.3611 238.262 95.1419C238.256 95.1052 238.251 95.0701 238.244 95.0327C237.861 92.4616 236.389 90.3103 234.499 88.8758C232.124 87.1582 229.595 85.6784 227.106 84.1394C222.108 81.1066 217.823 78.6651 212.767 75.7275C211.2 72.8351 209.608 69.9607 207.952 67.1322C207.115 65.7188 206.278 64.3062 205.338 62.9645C204.278 61.7289 203.506 60.2983 202.75 58.8248C201.224 55.9083 199.909 52.7975 197.808 50.2803C196.661 48.9605 195.412 47.7584 194.105 46.6258C194.223 46.8302 198.178 53.7288 197.773 60.6415C197.773 60.6415 197.765 60.6439 197.76 60.6454C198.234 60.9247 198.705 61.2188 199.18 61.4972L199.693 61.8077L199.948 61.9629C200.044 62.0121 200.125 62.0706 200.122 62.1228C200.255 62.399 200.387 62.867 200.504 63.2547C200.975 64.8912 201.461 66.5332 202.037 68.1283C203.182 71.314 204.618 74.3835 206.607 77.0052C207.601 78.3063 208.718 79.527 209.992 80.5216C211.244 81.5341 212.516 82.5216 213.796 83.4959C216.359 85.4421 218.219 86.7947 220.901 88.5716C223.586 90.3438 226.327 92.0357 229.187 93.5272C232.077 94.9625 235.031 96.3135 238.347 96.8174C238.35 96.7597 238.343 96.7043 238.344 96.6466C238.354 96.4859 238.359 96.1949 238.332 95.8041Z" fill="#EFC8B1"/>
<path d="M195.914 50.3033C195.825 51.2986 195.27 53.84 194.894 54.744C194.179 54.6364 193.479 54.3415 192.859 53.9679C192.17 53.5763 191.64 52.9975 190.977 52.4866C190.642 52.244 190.281 52.0295 189.871 51.8891C189.459 51.7799 188.993 51.6465 188.448 51.9936C188.385 52.0428 188.296 52.1169 188.256 52.2581C188.203 52.4063 188.244 52.4499 188.244 52.5474C188.28 52.6801 188.33 52.79 188.384 52.8875C188.494 53.081 188.615 53.2557 188.743 53.4187C188.998 53.7487 189.273 54.0521 189.553 54.3486C190.651 55.5451 191.89 56.599 193.027 57.723L193.867 58.5998C194.169 58.9001 194.523 59.1302 194.89 59.3229C195.624 59.709 196.411 59.9446 197.123 60.2815C197.378 60.4118 197.627 60.5631 197.878 60.7129V53.0943C196.906 52.8056 196.77 50.797 195.914 50.3033Z" fill="#EFC8B1"/>
<path d="M220.926 80.4633C220.926 80.4633 222.256 82.6225 221.835 86.9556C221.414 91.2895 219.607 90.447 219.607 90.447C219.607 90.447 224.122 93.8776 228.636 96.2856C233.151 98.6936 232.97 87.1966 232.97 87.1966C232.97 87.1966 221.402 79.0273 220.926 80.4633Z" fill="white"/>
<path d="M232.266 118.553C232.249 118.861 232.113 119.25 232.33 119.4C239.266 124.169 252.713 119.194 252.618 118.604C252.151 115.758 252.075 112.82 252.622 109.98C253.852 103.584 258.572 97.386 256.507 90.655C256.499 90.6316 256.492 90.6075 256.483 90.5841C255.788 88.5107 248.938 86.1066 248.341 85.7205C248.543 86.247 247.99 86.8547 247.8 87.0918C246.866 88.2533 245.397 88.9787 243.995 89.3906C242.367 89.8695 240.659 90.063 238.965 89.9975C238.014 89.96 237.06 89.8383 236.128 89.648C235.557 89.5318 234.851 89.3493 234.469 88.8789C233.768 88.0154 234.431 86.7588 234.864 85.9226C234.864 85.9226 234.035 86.233 232.971 86.2533C231.652 86.2782 227.614 83.6004 227.614 83.6004C226.871 85.889 228.008 94.996 227.124 97.2136C226.567 98.6091 226.275 100.146 226.547 101.624C226.988 104.012 228.776 105.829 229.542 108.092C230.514 110.965 232.431 115.424 232.266 118.553Z" fill="white"/>
<path d="M232.008 115.812C232.008 115.812 230.063 130.576 223.522 135.713C218.625 139.558 249.288 143.925 258.625 136.781C259.022 136.476 259.08 135.896 258.756 135.515C258.241 134.909 257.448 133.652 256.431 131.046C254.54 126.202 252.331 116.273 252.331 116.273L232.008 115.812Z" fill="white"/>
<path d="M273.139 116.786C272.641 117.41 271.78 117.548 270.392 116.741C268.514 115.65 267.069 114.065 265.782 112.352C264.141 110.167 262.188 108.23 260.321 106.229C257.799 103.527 255.154 100.873 252.839 97.9895C250.949 95.6353 249.441 93.8467 250.324 90.5604C250.459 90.0596 250.654 89.5612 250.997 89.168C251.517 88.5705 252.343 88.4161 253.097 88.5058C254.975 88.7312 256.232 90.0534 257.41 91.3693C258.638 92.7398 260.002 94.0019 261.289 95.3194C264.035 98.1354 266.72 101.036 268.985 104.256C270.461 106.357 272.035 108.434 273.058 110.809C274.098 113.222 274.155 115.515 273.139 116.786Z" fill="#EFC8B1"/>
<path d="M269.915 111.36H269.799C268.436 111.367 267.11 111.846 265.933 112.548C267.183 114.185 268.586 115.693 270.391 116.741C270.511 116.811 270.625 116.871 270.737 116.927C270.969 116.658 271.187 116.378 271.38 116.079C272.632 114.14 272.81 111.405 269.915 111.36Z" fill="#E8B79E"/>
<path d="M271.209 111.97C271.17 111.976 271.131 111.981 271.093 111.987C269.577 112.216 268.191 113.03 267.049 114.057C264.619 116.241 262.62 119.11 260.444 121.558C258.75 123.463 257.054 125.575 255.181 127.424C255.298 127.549 255.398 127.69 255.472 127.853C256.204 129.472 256.477 130.477 257.485 131.942C259.309 128.665 266.944 123.92 271.191 119.392C272.029 118.496 272.833 117.543 273.342 116.427C274.3 114.328 274.079 111.594 271.209 111.97Z" fill="#EFC8B1"/>
<path d="M255.074 130.069C255.071 130.074 253.008 132.457 252.61 132.417C252.212 132.377 251.688 131.866 251.688 131.866L254.394 128.343C254.394 128.343 251.54 131.047 250.846 131.092C250.152 131.138 249.634 130.57 249.634 130.57L253.29 126.74C253.29 126.74 250.88 129.602 250.05 129.864C249.219 130.127 248.582 129.603 248.582 129.603L252.112 125.302L251.987 125.979C251.987 125.979 250.247 127.299 249.57 127.174C248.894 127.049 248.359 126.652 248.359 126.652C248.359 126.652 250.212 125.343 251.168 124.403C252.123 123.465 253.084 123.618 253.084 123.618C254.793 125.032 255.855 127.19 256.946 129.11C257.79 130.595 257.812 133.439 257.812 133.439C257.812 133.439 257.282 134.399 255.074 130.069Z" fill="#F8D0B7"/>
<path d="M229.161 57.6515C229.161 57.6515 226.127 63.4893 226.297 71.9199C226.297 71.9199 220.62 64.4924 228.029 53.88L229.161 57.6515Z" fill="#161616"/>
<path d="M258.938 106.498C258.938 106.498 265.693 105.535 267.06 100.478C267.06 100.478 257.282 89.2514 253.062 87.8621C248.842 86.4737 246.995 91.3294 249.002 94.7405C251.009 98.1516 258.938 106.498 258.938 106.498Z" fill="white"/>
<path d="M227.21 96.9521C227.21 96.9521 227.502 95.4857 228.675 93.8609C229.849 92.2353 227.495 93.2384 225.217 94.293C225.217 94.293 227.225 95.4124 227.222 96.1354C227.22 96.5418 227.21 96.9521 227.21 96.9521Z" fill="#E1E4E5"/>
<path d="M237.746 75.4238C237.987 75.4238 238.194 75.26 238.255 75.0268C238.495 74.0962 239.333 73.4082 240.339 73.4082C241.345 73.4082 242.183 74.0962 242.424 75.0268C242.484 75.26 242.692 75.4238 242.933 75.4238C243.271 75.4238 243.538 75.1079 243.455 74.7795C243.103 73.3825 241.846 72.3466 240.339 72.3466C238.832 72.3466 237.576 73.3825 237.224 74.7795C237.141 75.1079 237.407 75.4238 237.746 75.4238Z" fill="#F05B4E"/>
</svg>
